<?xml version="1.0" encoding="utf-8"?>
<!-- Generator: Adobe Illustrator 28.3.0, SVG Export Plug-In . SVG Version: 6.00 Build 0)  -->
<svg version="1.1" id="Gold_Card" xmlns="http://www.w3.org/2000/svg" xmlns:xlink="http://www.w3.org/1999/xlink" x="0px" y="0px"
	 viewBox="0 0 380 240" style="enable-background:new 0 0 380 240;" xml:space="preserve">

<defs>
    <filter id="grainy" x="0%" y="0%" width="100%" height="100%" filterUnits="objectBoundingBox" primitiveUnits="userSpaceOnUse" color-interpolation-filters="linearRGB">
	    <feTurbulence type="turbulence" baseFrequency="0.102" numOctaves="4" seed="15" stitchTiles="stitch" x="0%" y="0%" width="100%" height="100%" result="turbulence"></feTurbulence>
	<feSpecularLighting surfaceScale="16" specularConstant="3" specularExponent="20" lighting-color="#ad883e" x="0%" y="0%" width="100%" height="100%" in="turbulence" result="specularLighting">
    		<feDistantLight azimuth="3" elevation="19"></feDistantLight>
  	    </feSpecularLighting>
  
    </filter>

     <clipPath id="clipShape">
            <path d="M365,0H15C6.7,0,0,6.7,0,15v210c0,8.3,6.7,15,15,15h350c8.3,0,15-6.7,15-15V15C380,6.7,373.3,0,365,0z
			 M269,134c0,4.7-1.2,9.3-3.6,13.4l-14,24.2c-2.4,4.1-5.7,7.5-9.8,9.8l-24.2,14c-4.1,2.4-8.7,3.6-13.4,3.6h-28
			c-4.7,0-9.3-1.2-13.4-3.6l-24.2-14c-4.1-2.4-7.5-5.7-9.8-9.8l-14-24.2c-2.4-4.1-3.6-8.7-3.6-13.4v-28c0-4.7,1.2-9.3,3.6-13.4
			l14-24.2c2.4-4.1,5.7-7.5,9.8-9.8l24.2-14c4.1-2.4,8.7-3.6,13.4-3.6h28c4.7,0,9.3,1.2,13.4,3.6l24.2,14c4.1,2.4,7.5,5.7,9.8,9.8
			l14,24.2c2.4,4.1,3.6,8.7,3.6,13.4V134z"/>
        </clipPath>

</defs>

<style type="text/css">
	.st0{fill:url(#logo-background_00000142859947033532728670000008521725826200026515_);}
	.st1{fill:url(#logo-inner_00000119813580495034316270000017920716060242854038_);}
	.st2{opacity:0.25;}
	.st3{fill:#FFFFFF;}
	.st4{fill:#60431D;}
	.st5{display:none;fill:#FF0049;}
	.st6{fill:url(#card_x5F_base_00000122694466056321695090000012474278915454873010_);}
	.st7{opacity:0.5;fill:#FFFFFF;enable-background:new    ;}
	.st8{opacity:0.5;fill:#231F20;enable-background:new    ;}
	.st9{fill:url(#frame-base_00000172442395661907982000000007347196366174403984_);}
	.st10{fill:#7F7F7F;opacity: .1;
          filter: brightness(1) contrast(1);
          transition: all .33s ease;
          mix-blend-mode: color-dodge;}
	.st11{opacity:0.25;fill:#FFFFFF;enable-background:new    ;}
	.st12{opacity:0.25;fill:#231F20;enable-background:new    ;}
	.st13{opacity:0.1;fill:#47310B;enable-background:new    ;}
	.st14{fill:url(#MC_icon_gold_00000011716005848833163260000015329021091945566375_);}
	.st15{fill:url(#gold_base_00000055701652857582066220000000918186761559568821_);}
	.st16{fill:#231F20;}
	.st17{fill:url(#chip_x5F_base_00000036214114913766346650000009710178402929822599_);}
	.st18{fill:url(#chip_x5F_top_00000076563328557786576400000004585113674268543892_);}
	.st19{fill:#E0AF58;}
	.st20{fill:#93682A;}
</style>

<g id="Karma_Logo_00000124872112112605698500000003593566490086987169_">
	
		<linearGradient id="logo-background_00000154407075140955405360000015903361158993310091_" gradientUnits="userSpaceOnUse" x1="190" y1="40.9" x2="190" y2="198.9" gradientTransform="matrix(1 0 0 -1 0 240)">
		<stop  offset="0" style="stop-color:#F4D762"/>
		<stop  offset="0.2439" style="stop-color:#CCA343"/>
		<stop  offset="0.3156" style="stop-color:#F7DB63"/>
		<stop  offset="1" style="stop-color:#D3B354"/>
	</linearGradient>
	<path id="logo-background" style="fill:url(#logo-background_00000154407075140955405360000015903361158993310091_);" d="
		M269,134.1c0,4.7-1.2,9.3-3.6,13.4l-14,24.2c-2.4,4.1-5.7,7.5-9.8,9.8l-24.2,14c-4.1,2.4-8.7,3.6-13.4,3.6h-28
		c-4.7,0-9.3-1.2-13.4-3.6l-24.2-14c-4.1-2.4-7.5-5.7-9.8-9.8l-14-24.2c-2.4-4.1-3.6-8.7-3.6-13.4v-28c0-4.7,1.2-9.3,3.6-13.4
		l14-24.2c2.4-4.1,5.7-7.5,9.8-9.8l24.2-14c4.1-2.4,8.7-3.6,13.4-3.6h28c4.7,0,9.3,1.2,13.4,3.6l24.2,14c4.1,2.4,7.5,5.7,9.8,9.8
		l14,24.2l0,0c2.4,4.1,3.6,8.7,3.6,13.4V134.1z"/>
	
		<linearGradient id="logo-inner_00000159451599257986908470000004072214349295049150_" gradientUnits="userSpaceOnUse" x1="158.3417" y1="174.7338" x2="222.7137" y2="63.2381" gradientTransform="matrix(1 0 0 -1 0 240)">
		<stop  offset="0" style="stop-color:#CDA544"/>
		<stop  offset="0.1409" style="stop-color:#BA8D36"/>
		<stop  offset="0.294" style="stop-color:#AB782A"/>
		<stop  offset="0.397" style="stop-color:#A57126"/>
		<stop  offset="0.4718" style="stop-color:#AE7C2C"/>
		<stop  offset="0.6614" style="stop-color:#BF9339"/>
		<stop  offset="0.8413" style="stop-color:#C9A041"/>
		<stop  offset="1" style="stop-color:#CDA544"/>
	</linearGradient>
	<path id="logo-inner" style="fill:url(#logo-inner_00000159451599257986908470000004072214349295049150_);" d="M241.9,74
		c-1.4-2.4-3.4-4.4-5.8-5.8l-24.2-14c-2.4-1.4-5.1-2.1-7.9-2.1h-4.5l-6.8,11.3c-1.2,2-4.2,2-5.4,0l-6.8-11.3H176
		c-2.8,0-5.5,0.7-7.9,2.1l-24.2,14c-2.4,1.4-4.4,3.4-5.8,5.8l-14,24.2c-1.4,2.4-2.1,5.1-2.1,7.9v4.5l11.3,6.8c2,1.2,2,4.2,0,5.4
		l-11.3,6.8v4.5c0,2.8,0.7,5.5,2.1,7.9l14,24.2c1.4,2.4,3.4,4.4,5.8,5.8l24.2,14c2.4,1.4,5.1,2.1,7.9,2.1h4.5l6.8-11.3
		c1.2-2,4.2-2,5.4,0l6.8,11.3h4.5c2.8,0,5.5-0.7,7.9-2.1l24.2-14c2.4-1.4,4.4-3.4,5.8-5.8l14-24.2c1.4-2.4,2.1-5.1,2.1-7.9v-4.5
		l-11.3-6.8c-2-1.2-2-4.2,0-5.4l11.3-6.8v-4.5c0-2.8-0.7-5.5-2.1-7.9L241.9,74z M233.6,86.6l-32.8,34.3l0,0l23.4,19.4
		c2.7,2.3,4.3,5.6,4.3,9.1v12.2c0,1.6-1.3,3-3,3h-14.8c-1.6,0-3-1.3-3-3v-7.3c0-0.9-0.4-1.7-1.1-2.3l-19.9-16.5l0,0l-19.5,20.4
		c-5,5.3-11.3,8.7-18.8,8.7c-1.6,0-3-1.3-3-3c0-18.4,14.8-17.9,14.8-53.6c0-15.5-4.4-23.5-8.9-23.5h-2.9c-1.6,0-3-1.3-3-3v-2.9
		c0-1.6,1.3-3,3-3c3.4,0,4.5,5.9,8.9,5.9h5.9c10.4,0,17.8,10,17.8,31.3c0,5.9-0.9,16.6-2.7,22.6c-0.2,0.7,0.7,1.1,1.1,0.5
		c5.1-8.1,8.2-18.4,8.9-28.3c0-0.3,0.2-0.7,0.4-0.9l21.4-22.4c1.6-1.7,3.9-2.8,6.4-2.8h14.8l0,0c1.6,0,3,1.3,3,3
		C234.5,85.3,234.2,86.1,233.6,86.6z M150,78.6v3c0,0.8-0.7,1.5-1.5,1.5s-1.5-0.7-1.5-1.5v-3c0-0.8,0.7-1.5,1.5-1.5
		S150,77.8,150,78.6z"/>
	<g id="logo-highlights" class="st2">
		<path class="st3" d="M148.5,83c0.8,0,1.5-0.7,1.5-1.5v-3c0-0.7-0.5-1.2-1.1-1.4c0,0.1,0.1,0.3,0.1,0.4v3c0,0.8-0.7,1.5-1.5,1.5
			c-0.1,0-0.3,0-0.4-0.1C147.3,82.6,147.8,83,148.5,83z"/>
		<path class="st3" d="M147.5,74.6c-1.7,0-3,1.4-3,3v2.9c0,1.1,0.6,2,1.4,2.5c-0.3-0.5-0.4-1-0.4-1.5v-2.9c0-1.6,1.3-3,3-3
			c0.8,0,1.5,0.4,2.2,0.9C149.7,75.5,148.8,74.6,147.5,74.6z"/>
		<path class="st3" d="M133.4,117.4c-0.3-0.4-0.6-0.8-1-1l-10.3-6.2v0.4L133.4,117.4C133.3,117.4,133.3,117.4,133.4,117.4z"/>
		<path class="st3" d="M208.2,163.2c-0.3-0.5-0.4-1-0.4-1.5v-7.3c0-0.9-0.4-1.7-1.1-2.3l-0.4-0.4c0.3,0.5,0.5,1.1,0.5,1.7v7.3
			C206.8,161.7,207.4,162.6,208.2,163.2z"/>
		<path class="st3" d="M163.3,81.5c3.6,0,6.8,1.2,9.5,3.6c-2.9-3.1-6.5-4.6-10.5-4.6h-5.9c-1.3,0-2.4-0.6-3.3-1.3
			c1.1,1.2,2.4,2.3,4.3,2.3H163.3z"/>
		<path class="st3" d="M178.4,135.4c-0.2,0.7,0.7,1.1,1.1,0.5c5.1-8.1,8.2-18.4,8.9-28.3c0-0.3,0.2-0.7,0.4-0.9l21.4-22.4
			c1.6-1.7,3.9-2.8,6.4-2.8h14.8l0,0c0.6,0,1.1,0.2,1.5,0.4c-0.5-0.9-1.5-1.4-2.5-1.4l0,0h-14.8c-2.5,0-4.8,1.1-6.4,2.8l-21.4,22.4
			c-0.2,0.3-0.4,0.6-0.4,0.9c-0.7,9.7-3.7,20-8.8,28C178.5,134.9,178.5,135.2,178.4,135.4z"/>
		<path class="st3" d="M186.3,62.4c0.3,0.4,0.6,0.8,1,1l0,0l-6.8-11.3h-0.4L186.3,62.4z"/>
		<path class="st3" d="M255.9,98.2l-14-24.2c-0.8-1.4-1.8-2.7-3-3.8c0.8,0.8,1.5,1.8,2,2.8l14,24.2c1.4,2.4,2.1,5.1,2.1,7.9v4.5
			l-11.3,6.8c-2,1.2-2,4.2,0,5.4c-0.9-1.4-0.6-3.4,1-4.4l11.3-6.8v-4.5C258,103.4,257.2,100.6,255.9,98.2z"/>
		<path class="st3" d="M257,133.1c0,2.8-0.7,5.5-2.1,7.9l-14,24.2c-1.4,2.4-3.4,4.4-5.8,5.8l-24.2,14c-2.4,1.4-5.1,2.1-7.9,2.1h-4.1
			l0.6,1h4.5c2.8,0,5.5-0.7,7.9-2.1l24.2-14c2.4-1.4,4.4-3.4,5.8-5.8l14-24.2c1.4-2.4,2.1-5.1,2.1-7.9v-4.5l-1-0.6V133.1z"/>
		<path class="st3" d="M186.3,175.8l-6.8,11.3H175c-2.8,0-5.5-0.7-7.9-2.1l-24.2-14c-1-0.6-1.9-1.3-2.8-2c1.1,1.2,2.4,2.2,3.8,3
			l24.2,14c2.4,1.4,5.1,2.1,7.9,2.1h4.5l6.8-11.3c1-1.6,3-1.9,4.4-1C190.5,173.7,187.5,173.7,186.3,175.8z"/>
		<path class="st3" d="M146,163.1c-0.3-0.5-0.4-1-0.4-1.5c0-18.4,14.8-17.9,14.8-53.6c0-12-2.6-19.5-5.9-22.2
			c2.8,3.4,4.9,10.5,4.9,21.2c0,35.7-14.8,35.2-14.8,53.6C144.5,161.7,145.1,162.6,146,163.1z"/>
		<path class="st3" d="M200.8,120.9l23.4,19.4c0.1,0.1,0.2,0.2,0.3,0.3c-0.4-0.4-0.8-0.9-1.3-1.3L200.8,120.9L200.8,120.9
			L200.8,120.9z"/>
	</g>
	<g id="logo-shadows" class="st2">
		<path class="st4" d="M148.5,77.1c-0.8,0-1.5,0.7-1.5,1.5v3c0,0.7,0.5,1.2,1.1,1.4c0-0.1-0.1-0.3-0.1-0.4v-3c0-0.8,0.7-1.5,1.5-1.5
			c0.1,0,0.3,0,0.4,0.1C149.7,77.6,149.2,77.1,148.5,77.1z"/>
		<path class="st4" d="M235.5,85.5c0-1.1-0.6-2-1.4-2.5c0.3,0.4,0.4,1,0.4,1.5c0,0.8-0.3,1.5-0.8,2.1l-32.8,34.3l0,0l1.1,0.9
			l32.7-34.2C235.2,87.1,235.5,86.3,235.5,85.5z"/>
		<path class="st4" d="M173.8,86.2c4.5,4.9,7.3,13.6,7.3,26.6c0,5.9-0.9,16.6-2.7,22.6c-0.2,0.7,0.7,1.1,1.1,0.5
			c0-0.1,0.1-0.2,0.1-0.2c1.6-6.1,2.5-16.2,2.5-21.9C182.1,99.9,178.9,90.8,173.8,86.2z"/>
		<path class="st4" d="M149.5,85.5h2.9c1,0,2,0.4,3,1.2c-1.2-1.5-2.6-2.2-4-2.2h-2.9c-0.6,0-1.1-0.2-1.5-0.4
			C147.5,84.9,148.4,85.5,149.5,85.5z"/>
		<path class="st4" d="M246.7,122.8c0.3,0.4,0.6,0.8,1,1L258,130v-0.4L246.7,122.8L246.7,122.8z"/>
		<path class="st4" d="M211.8,165.6h14.8c1.6,0,3-1.3,3-3v-12.2c0-3.4-1.5-6.6-4-8.9c1.9,2.2,3,4.9,3,7.9v12.2c0,1.6-1.3,3-3,3
			h-14.8c-0.6,0-1.1-0.2-1.5-0.4C209.7,165,210.7,165.6,211.8,165.6z"/>
		<path class="st4" d="M123,107.1c0-2.8,0.7-5.5,2.1-7.9l14-24.2c1.4-2.4,3.4-4.4,5.8-5.8l24.2-14c2.4-1.4,5.1-2.1,7.9-2.1h4.1
			l-0.6-1H176c-2.8,0-5.5,0.7-7.9,2.1l-24.2,14c-2.4,1.4-4.4,3.4-5.8,5.8l-14,24.2c-1.4,2.4-2.1,5.1-2.1,7.9v4.5l1,0.6
			C123,111.2,123,107.1,123,107.1z"/>
		<path class="st4" d="M139.1,167.2l-14-24.2c-1.4-2.4-2.1-5.1-2.1-7.9v-4.5l11.3-6.8c2-1.2,2-4.2,0-5.4c0.9,1.4,0.6,3.4-1,4.4
			l-11.3,6.8v4.5c0,2.8,0.7,5.5,2.1,7.9l14,24.2c0.8,1.4,1.8,2.7,3,3.8C140.4,169.1,139.7,168.2,139.1,167.2z"/>
		<path class="st4" d="M193.7,177.8c-0.3-0.4-0.6-0.8-1-1l0,0l6.8,11.3h0.4L193.7,177.8z"/>
		<path class="st4" d="M206.7,152l-19.9-16.5l0,0l-19.5,20.4c-5,5.3-11.3,8.7-18.8,8.7c-0.6,0-1.1-0.2-1.5-0.4
			c0.5,0.9,1.5,1.4,2.5,1.4c7.5,0,13.8-3.4,18.8-8.7l19.5-20.4l0,0l19.4,16.1C207.1,152.4,206.9,152.2,206.7,152z"/>
		<path class="st4" d="M151.7,77.5c0.8,0.9,1.5,1.9,2.4,2.7C153.3,79.3,152.5,78.2,151.7,77.5z"/>
		<path class="st4" d="M193.7,64.4l6.8-11.3h4.5c2.8,0,5.5,0.7,7.9,2.1l24.2,14c1,0.6,1.9,1.3,2.8,2c-1.1-1.2-2.4-2.2-3.8-3
			l-24.2-14c-2.4-1.4-5.1-2.1-7.9-2.1h-4.5l-6.8,11.3c-1,1.6-3,1.9-4.4,1C189.6,66.5,192.5,66.5,193.7,64.4z"/>
	</g>
</g>

<rect id="Project_Logo_Here" x="100" y="30.1" class="st5" width="180" height="180"/>

<g id="Card">
	
		<linearGradient id="card_x5F_base_00000060028193882439236990000014139133658347055780_" gradientUnits="userSpaceOnUse" x1="96.8613" y1="281.221" x2="293.4602" y2="-59.2983" gradientTransform="matrix(1 0 0 -1 0 240)">
		<stop  offset="0" style="stop-color:#B88C39"/>
		<stop  offset="1.154427e-02" style="stop-color:#C29B43"/>
		<stop  offset="3.494656e-02" style="stop-color:#D3B354"/>
		<stop  offset="5.965155e-02" style="stop-color:#DFC460"/>
		<stop  offset="8.629417e-02" style="stop-color:#E6CF67"/>
		<stop  offset="0.1183" style="stop-color:#E8D269"/>
		<stop  offset="0.2213" style="stop-color:#CDAB4E"/>
		<stop  offset="0.3242" style="stop-color:#B78B38"/>
		<stop  offset="0.4106" style="stop-color:#AA782B"/>
		<stop  offset="0.47" style="stop-color:#A57126"/>
		<stop  offset="0.5479" style="stop-color:#B28230"/>
		<stop  offset="0.7017" style="stop-color:#D5AF4A"/>
		<stop  offset="0.8367" style="stop-color:#F7DB63"/>
		<stop  offset="0.8697" style="stop-color:#F4D761"/>
		<stop  offset="0.9048" style="stop-color:#E9CA59"/>
		<stop  offset="0.941" style="stop-color:#D9B54E"/>
		<stop  offset="0.9776" style="stop-color:#C1973D"/>
		<stop  offset="1" style="stop-color:#B08131"/>
	</linearGradient>
	<path id="card_x5F_base" style="fill:url(#card_x5F_base_00000060028193882439236990000014139133658347055780_);" d="M15,0.1h350
		c8.3,0,15,6.7,15,15v210c0,8.3-6.7,15-15,15H15c-8.3,0-15-6.7-15-15v-210C0,6.8,6.7,0.1,15,0.1z M269,106.1c0-4.7-1.2-9.3-3.6-13.4
		l-14-24.2c-2.3-4.1-5.7-7.4-9.8-9.8l-24.2-14c-4.1-2.4-8.7-3.6-13.4-3.6h-28c-4.7,0-9.3,1.2-13.4,3.6l-24.2,14
		c-4.1,2.3-7.4,5.7-9.8,9.8l-14,24.2c-2.4,4.1-3.6,8.7-3.6,13.4v28c0,4.7,1.2,9.3,3.6,13.4l14,24.2c2.3,4.1,5.7,7.4,9.8,9.8l24.2,14
		c4.1,2.4,8.7,3.6,13.4,3.6h28c4.7,0,9.3-1.2,13.4-3.6l24.2-14c4.1-2.3,7.4-5.7,9.8-9.8l14-24.2c2.4-4.1,3.6-8.7,3.6-13.4V106.1z"/>
	<path id="card_x5F_higlight" class="st7" d="M1,226.1v-211c0-7.7,6.3-14,14-14h351c3.9,0,7.4,1.5,10.1,3.9c-2.7-3-6.7-4.9-11.1-4.9
		H15c-8.3,0-15,6.7-15,15v210c0,4.4,1.9,8.3,4.9,11.1C2.5,233.5,1,230,1,226.1z"/>
	<path id="card_x5F_shadow" class="st8" d="M377.5,6.8c1,1.9,1.5,4,1.5,6.3v212c0,7.7-6.3,14-14,14H13c-2.3,0-4.4-0.6-6.3-1.5
		c2.4,1.6,5.2,2.5,8.3,2.5h350c8.3,0,15-6.7,15-15v-210C380,12,379.1,9.2,377.5,6.8z"/>
	<g id="Inner_frame_group">
		<g id="Inner_x5F_frame">
			
				<linearGradient id="frame-base_00000154390275408358068990000001954767171532151732_" gradientUnits="userSpaceOnUse" x1="146.6723" y1="194.9457" x2="236.0536" y2="40.1329" gradientTransform="matrix(1 0 0 -1 0 240)">
				<stop  offset="0" style="stop-color:#E8D269"/>
				<stop  offset="0.1111" style="stop-color:#CDAB4E"/>
				<stop  offset="0.2221" style="stop-color:#B78B38"/>
				<stop  offset="0.3154" style="stop-color:#AA782B"/>
				<stop  offset="0.3796" style="stop-color:#A57126"/>
				<stop  offset="0.4239" style="stop-color:#B28230"/>
				<stop  offset="0.5115" style="stop-color:#D5AF4A"/>
				<stop  offset="0.5884" style="stop-color:#F7DB63"/>
				<stop  offset="0.6715" style="stop-color:#F4D761"/>
				<stop  offset="0.7601" style="stop-color:#E9CA59"/>
				<stop  offset="0.8512" style="stop-color:#D9B54E"/>
				<stop  offset="0.9435" style="stop-color:#C1973D"/>
				<stop  offset="1" style="stop-color:#B08131"/>
			</linearGradient>
			<path id="frame-base" style="fill:url(#frame-base_00000154390275408358068990000001954767171532151732_);" d="M275.9,88.9
				L260,61.3c-2.7-4.7-6.5-8.5-11.2-11.2l-27.6-15.9c-4.7-2.7-9.9-4.1-15.3-4.1h-31.8c-5.4,0-10.6,1.4-15.3,4.1l-27.6,15.9
				c-4.7,2.7-8.5,6.5-11.2,11.2l-15.9,27.6c-2.7,4.7-4.1,9.9-4.1,15.3V136c0,5.4,1.4,10.6,4.1,15.3l15.9,27.6
				c2.7,4.7,6.5,8.5,11.2,11.2l27.6,15.9c4.7,2.7,9.9,4.1,15.3,4.1h31.8c5.4,0,10.6-1.4,15.3-4.1l27.6-15.9
				c4.7-2.7,8.5-6.5,11.2-11.2l15.9-27.6c2.7-4.7,4.1-9.9,4.1-15.3v-31.8C280,98.8,278.6,93.6,275.9,88.9z M269,134.1
				c0,4.7-1.2,9.3-3.6,13.4l-14,24.2c-2.4,4.1-5.7,7.5-9.8,9.8l-24.2,14c-4.1,2.4-8.7,3.6-13.4,3.6h-28c-4.7,0-9.3-1.2-13.4-3.6
				l-24.2-14c-4.1-2.4-7.5-5.7-9.8-9.8l-14-24.2c-2.4-4.1-3.6-8.7-3.6-13.4v-28c0-4.7,1.2-9.3,3.6-13.4l14-24.2
				c2.4-4.1,5.7-7.5,9.8-9.8l24.2-14c4.1-2.4,8.7-3.6,13.4-3.6h28c4.7,0,9.3,1.2,13.4,3.6l24.2,14c4.1,2.4,7.5,5.7,9.8,9.8l14,24.2
				c2.4,4.1,3.6,8.7,3.6,13.4V134.1z"/>
			<g id="frame-shadow" class="st2">
				<path d="M132.4,176.7c-1.4-1.5-2.7-3.2-3.8-5l-14-24.2c-2.4-4.1-3.6-8.7-3.6-13.4v-28c0-4.7,1.2-9.3,3.6-13.4l14-24.2
					c2.4-4.1,5.7-7.5,9.8-9.8l24.2-14c4.1-2.4,8.7-3.6,13.4-3.6h28c4.7,0,9.3,1.2,13.4,3.6l24.2,14c1.8,1.1,3.5,2.3,5,3.8
					c-1.8-1.9-3.8-3.5-6-4.8l-24.2-14c-4.1-2.4-8.7-3.6-13.4-3.6h-28c-4.7,0-9.3,1.2-13.4,3.6l-24.2,14c-4.1,2.4-7.5,5.7-9.8,9.8
					l-14,24.2c-2.4,4.1-3.6,8.7-3.6,13.4v28c0,4.7,1.2,9.3,3.6,13.4l14,24.2C128.9,172.9,130.5,175,132.4,176.7z"/>
				<path d="M275.9,88.9L260,61.3c-1.5-2.5-3.3-4.8-5.4-6.8c1.7,1.8,3.2,3.7,4.4,5.8l15.9,27.6c2.7,4.7,4.1,9.9,4.1,15.3V135
					c0,5.4-1.4,10.6-4.1,15.3L259,177.9c-2.7,4.7-6.5,8.5-11.2,11.2L220.2,205c-4.7,2.7-9.9,4.1-15.3,4.1h-31.8
					c-5.4,0-10.6-1.4-15.3-4.1l-27.6-15.9c-2.1-1.2-4.1-2.7-5.8-4.4c2,2.1,4.3,3.9,6.8,5.4l27.6,15.9c4.7,2.7,9.9,4.1,15.3,4.1h31.8
					c5.4,0,10.6-1.4,15.3-4.1l27.6-15.9c4.7-2.7,8.5-6.5,11.2-11.2l15.9-27.6c2.7-4.7,4.1-9.9,4.1-15.3v-31.8
					C280,98.8,278.6,93.5,275.9,88.9z"/>
			</g>
			<g id="frame-highlight" class="st2">
				<path class="st3" d="M121,179.9l-15.9-27.6c-2.7-4.7-4.1-9.9-4.1-15.3v-31.8c0-5.4,1.4-10.6,4.1-15.3L121,62.3
					c2.7-4.7,6.5-8.5,11.2-11.2l27.6-15.9c4.7-2.7,9.9-4.1,15.3-4.1h31.8c5.4,0,10.6,1.4,15.3,4.1l27.6,15.9
					c2.1,1.2,4.1,2.7,5.8,4.4c-2-2.1-4.3-3.9-6.8-5.4l-27.6-15.9c-4.7-2.7-9.9-4.1-15.3-4.1h-31.8c-5.4,0-10.6,1.4-15.3,4.1
					l-27.6,15.9c-4.7,2.7-8.5,6.5-11.2,11.2l-15.9,27.6c-2.7,4.7-4.1,9.9-4.1,15.3V136c0,5.4,1.4,10.6,4.1,15.3l15.9,27.6
					c1.5,2.5,3.3,4.8,5.4,6.8C123.7,184,122.2,182,121,179.9z"/>
				<path class="st3" d="M247.7,63.5c1.4,1.5,2.7,3.2,3.8,5l14,24.2l0,0c2.4,4.1,3.6,8.7,3.6,13.4v28c0,4.7-1.2,9.3-3.6,13.4
					l-14,24.2c-2.4,4.1-5.7,7.5-9.8,9.8l-24.2,14c-4.1,2.4-8.7,3.6-13.4,3.6H176c-4.7,0-9.3-1.2-13.4-3.6l-24.2-14
					c-1.8-1.1-3.5-2.3-5-3.8c1.8,1.9,3.8,3.5,6,4.8l24.2,14c4.1,2.4,8.7,3.6,13.4,3.6h28c4.7,0,9.3-1.2,13.4-3.6l24.2-14
					c4.1-2.4,7.5-5.7,9.8-9.8l14-24.2c2.4-4.1,3.6-8.7,3.6-13.4v-28c0-4.7-1.2-9.3-3.6-13.4l0,0l-14-24.2
					C251.1,67.3,249.5,65.2,247.7,63.5z"/>
			</g>
		</g>
	</g>
</g>

<path id="Diamond_x5F_pattern" class="st10" d="M0,62v5.4C3.1,56.6,7.5,46,13.2,36.1L29,8.8c1.7-3,3.6-6,5.6-8.8h-1.9
	c-1.8,2.6-3.4,5.3-5,8L11.9,35.3C6.9,43.9,3,52.9,0,62z M40.5,224.4l-15.7-27.3C14,178.5,8.3,157.3,8.3,135.7v-31.5
	c0-21.5,5.7-42.8,16.5-61.4l15.8-27.3C43.7,10.1,47.3,4.9,51.2,0h-2c-3.7,4.6-7,9.6-10,14.7L23.4,42.1C12.5,60.9,6.7,82.4,6.7,104.3
	v31.5c0,21.8,5.8,43.4,16.7,62.2l15.7,27.3c3,5.2,6.3,10.1,10,14.7h2C47.2,235,43.6,229.8,40.5,224.4z M339.5,15.6l15.7,27.3
	c10.8,18.7,16.5,39.9,16.5,61.4v31.5c0,21.6-5.7,42.8-16.5,61.4l-15.7,27.3c-3.1,5.4-6.7,10.6-10.6,15.5h2c3.7-4.7,7-9.6,10-14.7
	l15.7-27.3c10.9-18.9,16.7-40.4,16.7-62.2v-31.5c0-21.8-5.8-43.4-16.7-62.2l-15.7-27.3c-3-5.2-6.3-10.1-10-14.7h-2
	C332.8,5,336.4,10.2,339.5,15.6z M28.9,231.1l-15.7-27.3C7.5,193.9,3.1,183.3,0,172.5v5.4c3,9.3,6.9,18.2,11.8,26.7l15.8,27.4
	c1.6,2.7,3.3,5.4,5,8h1.9C32.5,237,30.7,234.1,28.9,231.1z M380,210.8v-3.2c-0.5,1-1.1,2-1.6,2.9l-15.7,27.3
	c-0.4,0.7-0.9,1.4-1.3,2.1h1.8c0.3-0.5,0.6-0.9,0.8-1.4l15.7-27.3C379.8,211.1,379.9,211,380,210.8z M17.4,237.7L1.7,210.4
	c-0.6-1-1.1-1.9-1.6-2.9v3.2c0.1,0.2,0.2,0.3,0.3,0.5L16,238.5c0.3,0.5,0.5,0.9,0.8,1.4h1.8C18.2,239.2,17.8,238.5,17.4,237.7z
	 M316.4,29l15.7,27.3c8.4,14.6,12.9,31.2,12.9,48.1v31.5c0,16.9-4.5,33.5-12.9,48.1l-15.7,27.3c-6.5,11.3-15.2,21.1-25.6,28.9h2.6
	c9.8-7.7,18.1-17.2,24.4-28.1l15.7-27.3c8.6-14.8,13.1-31.8,13.1-48.9v-31.5c0-17.1-4.5-34.1-13.1-48.9l-15.7-27.3
	c-6.3-10.9-14.6-20.4-24.4-28.1h-2.6C301.1,7.9,309.9,17.7,316.4,29z M0,29.2v3.2c0.5-1,1.1-1.9,1.6-2.9L17.4,2.2
	c0.4-0.7,0.9-1.4,1.3-2.1h-1.8c-0.3,0.5-0.5,0.9-0.8,1.4L0.3,28.8C0.2,28.9,0.1,29.1,0,29.2z M351.1,8.9l15.7,27.3
	c5.7,9.9,10.1,20.4,13.2,31.4V62c-3-9.3-6.9-18.2-11.8-26.7L352.4,8.1c-1.6-2.7-3.3-5.4-5-8h-1.9C347.5,3,349.3,5.9,351.1,8.9z
	 M380,178v-5.4c-3.1,10.9-7.5,21.5-13.2,31.4l-15.7,27.3c-1.7,3-3.6,6-5.6,8.8h1.9c1.8-2.6,3.4-5.3,5-8l15.7-27.3
	C373.1,196.1,377,187.1,380,178z M35,48.8c-9.7,16.9-14.9,36.1-14.9,55.6v31.5c0,19.5,5.1,38.7,14.9,55.6l15.7,27.3
	c4.5,7.8,9.9,15,16.1,21.4H69c-6.5-6.6-12.2-14.1-16.9-22.2l-15.7-27.3C26.8,174,21.7,155,21.7,135.8v-31.5
	c0-19.2,5.1-38.2,14.7-54.8l15.8-27.3c4.7-8.1,10.4-15.6,16.9-22.2h-2.2c-6.2,6.4-11.6,13.6-16.1,21.4L35,48.8z M294.6,198.5
	l15.7-27.3c6.2-10.8,9.5-23.1,9.5-35.6v-31.5c0-12.5-3.3-24.8-9.5-35.6l-15.7-27.3c-6.2-10.8-15.2-19.8-26-26L241.9,0.1h-3.2
	c0.6,0.3,1.2,0.7,1.8,1l27.3,15.7c10.6,6.1,19.4,14.9,25.5,25.5L309,69.5c6.1,10.6,9.3,22.6,9.3,34.8v31.5c0,12.2-3.2,24.2-9.3,34.8
	l-15.7,27.3c-6.1,10.6-14.9,19.4-25.4,25.5l-27.4,15.6c-0.6,0.3-1.2,0.7-1.8,1h3.2l26.7-15.4C279.4,218.3,288.4,209.3,294.6,198.5z
	 M85.4,41.5L69.6,68.7c-6.2,10.8-9.5,23.1-9.5,35.6v31.5c0,12.5,3.3,24.8,9.5,35.6l15.7,27.3c6.2,10.8,15.2,19.8,26,26L138,240h3.2
	c-0.6-0.3-1.2-0.7-1.8-1l-27.3-15.7c-10.6-6.1-19.4-14.9-25.5-25.5L71,170.5c-6.1-10.6-9.3-22.6-9.3-34.8v-31.5
	C61.7,92,64.9,80,71,69.4l15.8-27.3c6.1-10.6,14.9-19.4,25.5-25.5L139.6,1c0.6-0.3,1.2-0.7,1.8-1h-3.2l-26.7,15.4
	C100.6,21.7,91.6,30.7,85.4,41.5z M364,1.5c-0.3-0.5-0.5-0.9-0.8-1.4h-1.8c0.4,0.7,0.9,1.4,1.3,2.2l15.7,27.3c0.6,1,1.1,1.9,1.6,2.9
	v-3.2c-0.1-0.2-0.2-0.3-0.3-0.5L364,1.5z M345,191.2c9.7-16.9,14.9-36.1,14.9-55.6v-31.5c0-19.5-5.1-38.7-14.9-55.6l-15.7-27.3
	c-4.5-7.8-9.9-15-16.1-21.4H311c6.5,6.6,12.2,14.1,16.9,22.2l15.7,27.3c9.6,16.6,14.7,35.6,14.7,54.8v31.5
	c0,19.2-5.1,38.2-14.7,54.8l-15.7,27.3c-4.7,8.1-10.4,15.6-16.9,22.2h2.2c6.2-6.4,11.6-13.6,16.1-21.4L345,191.2z M274.5,5.3
	c12.6,7.3,23.1,17.8,30.3,30.3l15.7,27.3c7.3,12.6,11.1,26.9,11.1,41.4v31.5c0,14.5-3.8,28.9-11.1,41.5l-15.7,27.3
	c-7.3,12.6-17.7,23.1-30.3,30.3l-9,5.2h3.1l6.6-3.8c12.8-7.4,23.5-18.1,30.9-30.9l15.7-27.3c7.4-12.8,11.3-27.4,11.3-42.2v-31.5
	c0-14.8-3.9-29.4-11.3-42.2l-15.7-27.3C298.7,22.1,288,11.4,275.2,4l-6.6-3.8h-3.1L274.5,5.3z M105.5,234.7
	c-12.6-7.3-23.1-17.8-30.3-30.3l-15.7-27.3c-7.3-12.6-11.1-26.9-11.1-41.4v-31.5c0-14.5,3.8-28.9,11.1-41.4l15.8-27.3
	c7.3-12.6,17.8-23.1,30.3-30.3l9-5.2h-3.1L104.9,4C92.1,11.4,81.4,22.1,74,34.9L58.1,62c-7.4,12.8-11.3,27.4-11.3,42.2v31.5
	c0,14.8,3.9,29.4,11.3,42.2l15.7,27.3c7.4,12.8,18.1,23.5,30.9,30.9l6.6,3.8h3.1L105.5,234.7z M63.6,211l-15.7-27.3
	C39.4,169.3,35,152.6,35,135.7v-31.5c0-16.9,4.5-33.5,12.9-48.1l15.8-27.3C70.2,17.6,78.9,7.8,89.3,0.1h-2.6
	c-9.8,7.7-18.1,17.2-24.4,28.1L46.5,55.5c-8.6,14.8-13.1,31.8-13.1,48.9v31.5c0,17.1,4.5,34.1,13.1,48.9l15.7,27.3
	c6.3,10.9,14.6,20.4,24.4,28.1h2.6C78.9,232.1,70.1,222.3,63.6,211z M293.2,135.7v-31.5c0-7.8-2.1-15.5-5.9-22.2l-15.7-27.3
	c-3.9-6.7-9.5-12.4-16.3-16.3L228,22.9c-6.7-3.9-14.4-5.9-22.2-5.9h-31.5c-7.8,0-15.5,2.1-22.2,5.9l-27.3,15.7
	c-6.7,3.9-12.4,9.5-16.3,16.3L92.7,82.1c-3.9,6.7-5.9,14.4-5.9,22.2v31.5c0,7.8,2.1,15.5,5.9,22.2l15.7,27.3
	c3.9,6.7,9.5,12.4,16.3,16.3l27.3,15.7c6.7,3.9,14.4,5.9,22.2,5.9h31.5c7.8,0,15.5-2.1,22.2-5.9l27.3-15.7
	c6.7-3.9,12.4-9.5,16.3-16.3l15.7-27.3C291.1,151.2,293.2,143.5,293.2,135.7z M270.1,184.3c-3.8,6.5-9.2,11.9-15.7,15.7l-27.3,15.7
	c-6.5,3.8-13.9,5.7-21.4,5.7h-31.5c-7.5,0-14.9-2-21.4-5.7L125.5,200c-6.5-3.8-11.9-9.2-15.7-15.7l-15.7-27.3
	c-3.8-6.5-5.7-13.9-5.7-21.4v-31.5c0-7.5,2-14.9,5.7-21.4l15.8-27.3c3.8-6.5,9.2-11.9,15.7-15.7l27.3-15.7
	c6.5-3.8,13.9-5.7,21.4-5.7h31.5c7.5,0,14.9,2,21.4,5.7l27.3,15.7c6.5,3.8,11.9,9.2,15.7,15.7l15.7,27.3c3.8,6.5,5.7,13.9,5.7,21.4
	v31.5c0,7.5-2,14.9-5.7,21.4L270.1,184.3z M283,191.8l15.7-27.3c5.1-8.8,7.7-18.8,7.7-28.9v-31.5c0-10.1-2.7-20.1-7.7-28.9L283,48.2
	c-5.1-8.8-12.4-16.1-21.1-21.1l-27.3-15.7c-8.8-5.1-18.8-7.7-28.9-7.7h-31.5c-10.1,0-20.1,2.7-28.9,7.7l-27.2,15.7
	C109.3,32.2,102,39.5,97,48.2L81.2,75.4c-5.1,8.8-7.7,18.8-7.7,28.9v31.5c0,10.1,2.7,20.1,7.7,28.9l15.7,27.3
	c5.1,8.8,12.4,16.1,21.1,21.1l27.3,15.7c8.8,5.1,18.8,7.7,28.9,7.7h31.5c10.1,0,20.1-2.7,28.9-7.7l27.3-15.7
	C270.7,207.9,278,200.6,283,191.8z M233.8,227.3c-8.5,4.9-18.2,7.5-28.1,7.5h-31.5c-9.9,0-19.6-2.6-28.1-7.5l-27.3-15.7
	c-8.5-4.9-15.6-12-20.6-20.6l-15.7-27.3c-4.9-8.5-7.5-18.2-7.5-28.1v-31.5c0-9.8,2.6-19.6,7.5-28.1l15.8-27.3
	c4.9-8.5,12-15.6,20.6-20.6l27.3-15.7c8.5-4.9,18.3-7.5,28.1-7.5h31.5c9.8,0,19.6,2.6,28.1,7.5l27.3,15.7c8.5,4.9,15.6,12,20.6,20.6
	l15.7,27.3c4.9,8.5,7.5,18.2,7.5,28.1v31.5c0,9.9-2.6,19.6-7.5,28.1L281.8,191c-4.9,8.5-12,15.6-20.6,20.6L233.8,227.3z"/>

<rect width="100%" height="100%" filter="url(#grainy)" clip-path="url(#clipShape)" />

<g id="Karma_Letters">
	<g id="karma_x5F_logo">
		<path id="karma_x5F_logo_x5F_highlight" class="st11" d="M83.3,33.1h-4.8c-0.1-0.1-0.2-0.2-0.2-0.3c-0.8-2.1-1.7-4.3-2.5-6.4
			c-0.1-0.2-0.2-0.5-0.6-0.3c0,1.1,0,2.3,0,3.5s0,2.4,0,3.5c-0.4,0.1-3,0.1-3.5,0c-0.1-0.4-0.1-9.5,0-10c2,0,4,0,6.1,0
			c1,2.4,1.9,4.8,2.8,7.1c0.2,0.1,0.4,0.1,0.5,0c0.9-2.3,1.9-4.7,2.8-7.1H90c0.1,1.1,0,2.2,0,3.3s0,2.2,0,3.3v3.4
			c-1.2,0.1-2.3,0-3.5,0c0-0.7,0-1.2,0-1.8s0-1.2,0-1.7v-1.8c0-0.6,0-1.2,0-1.7c-0.1-0.2-0.3-0.1-0.4-0.1
			C85.2,28.4,84.3,30.8,83.3,33.1L83.3,33.1z M67.5,29.8c1.1,0.4,2,0.9,2.6,1.8c0.3,0.5,0.5,1,0.5,1.5c-0.4,0.1-3.2,0.1-3.7,0
			L66.8,33c-0.3-0.9-0.9-1.3-1.8-1.5c-0.9-0.3-1.8-0.4-2.8-0.4c-1.1,0-2.2,0-3.3,0c-0.1,0-0.3,0-0.4,0.1c-0.1,0.6,0,1.3-0.1,1.9
			c-0.4,0.1-2.9,0.1-3.4,0c-0.1-0.4-0.1-9.5,0-10c0.3,0,0.5-0.1,0.8-0.1c2.5-0.1,5-0.2,7.5-0.1c1.3,0.1,2.6,0.2,3.9,0.7
			c0.6,0.2,1.1,0.4,1.6,0.8c1.2,0.8,1.5,2.2,1.1,3.4c-0.3,0.8-0.9,1.2-1.6,1.6C68.1,29.5,67.8,29.6,67.5,29.8L67.5,29.8z M58.7,28.1
			c0.2,0,0.4,0,0.6,0c1.4,0,2.7,0.1,4.1-0.1c0.7-0.1,1.5-0.1,2.2-0.3c0.2-0.1,0.5-0.2,0.7-0.3s0.4-0.2,0.4-0.5s-0.2-0.5-0.4-0.6
			c-0.2-0.1-0.4-0.2-0.6-0.2c-0.8-0.2-1.7-0.2-2.6-0.3c-1,0-2,0-3,0c-0.4,0-0.9,0.1-1.3,0.1L58.7,28.1L58.7,28.1z M48.8,23.1
			c1.8,3.3,3.5,6.7,5.3,10c-0.4,0.1-2.8,0.2-3.8,0.1c-0.3-0.3-0.4-0.7-0.6-1h-7.8c-0.3,0.3-0.3,0.7-0.7,1.1c-1.2,0-2.5,0-3.8,0
			c1.8-3.4,3.6-6.7,5.4-10.1L48.8,23.1L48.8,23.1z M43.5,29.1h4.7c-0.6-1-1.1-2.1-1.7-3.1c-0.4,0-0.9,0-1.4,0
			C44.6,27,44,28,43.5,29.1z M107.7,33.1h-3.8c-0.2-0.3-0.4-0.7-0.6-1h-7.9c-0.3,0.3-0.3,0.7-0.6,1h-3.7c0.1-0.4,5-9.7,5.3-10.1h5.9
			C102.7,23.6,107.6,32.8,107.7,33.1L107.7,33.1z M98.7,26c-0.2,0.3-1.5,2.6-1.6,3.1c0.6,0.1,4.2,0.1,4.6,0c-0.6-1-1-2.1-1.7-3
			C99.6,26,99.2,26,98.7,26L98.7,26z M21.8,23.1h3.4c0.2,0.2,0.1,0.4,0.1,0.5c0,1.1,0,2.2,0,3.3c0,0.2,0,0.3,0.1,0.5
			c0.4,0,0.7,0,1.1-0.1c1.1-0.2,2.3-0.4,3.3-1c1.3-0.7,2.3-1.6,2.8-3.1c0-0.1,0-0.2,0.2-0.2h3.5c-0.6,2.6-2.2,4.4-4.4,5.7
			c1.7,1.5,3.3,2.9,4.9,4.3c-0.1,0.2-0.2,0.1-0.3,0.1c-1.3,0-2.6,0-4,0c-0.3,0-0.4-0.1-0.6-0.2c-1-0.9-2-1.8-3.1-2.7
			C28.6,30,28.4,30,28.2,30c-0.9,0.2-1.8,0.3-2.8,0.3c-0.1,0.5,0,0.9,0,1.3s0,0.9,0,1.3C25,33,22.6,33.1,21.9,33
			c-0.1-1.1,0-2.2,0-3.3s0-2.2,0-3.3L21.8,23.1L21.8,23.1z"/>
		<path id="karma_x5F_logo_x5F_shadow" class="st12" d="M84.3,33.9h-4.8c-0.1-0.1-0.2-0.2-0.2-0.3c-0.8-2.1-1.7-4.3-2.5-6.4
			c-0.1-0.2-0.2-0.5-0.6-0.3c0,1.1,0,2.3,0,3.5s0,2.4,0,3.5c-0.4,0.1-3,0.1-3.5,0c-0.1-0.4-0.1-9.5,0-10c2,0,4,0,6.1,0
			c1,2.4,1.9,4.8,2.8,7.1c0.2,0.1,0.4,0.1,0.5,0c0.9-2.3,1.9-4.7,2.8-7.1H91c0.1,1.1,0,2.2,0,3.3s0,2.2,0,3.3v3.4
			c-1.2,0.1-2.3,0-3.5,0c0-0.7,0-1.2,0-1.8s0-1.2,0-1.7v-1.8c0-0.6,0-1.2,0-1.7c-0.1-0.2-0.3-0.1-0.4-0.1
			C86.1,29.1,85.2,31.5,84.3,33.9L84.3,33.9z M68.4,30.5c1.1,0.4,2,0.9,2.6,1.8c0.3,0.5,0.5,1,0.5,1.5c-0.4,0.1-3.2,0.1-3.7,0
			l-0.1-0.1c-0.3-0.9-0.9-1.3-1.8-1.5c-0.9-0.3-1.8-0.4-2.8-0.4c-1.1,0-2.2,0-3.3,0c-0.1,0-0.3,0-0.4,0.1c-0.1,0.6,0,1.3-0.1,1.9
			c-0.4,0.1-2.9,0.1-3.4,0c-0.1-0.4-0.1-9.5,0-10c0.3,0,0.5-0.1,0.8-0.1c2.5-0.1,5-0.2,7.5-0.1c1.3,0.1,2.6,0.2,3.9,0.7
			c0.6,0.2,1.1,0.4,1.6,0.8c1.2,0.8,1.5,2.2,1.1,3.4c-0.3,0.8-0.9,1.2-1.6,1.6C69,30.2,68.7,30.3,68.4,30.5L68.4,30.5z M59.6,28.8
			c0.2,0,0.4,0,0.6,0c1.4,0,2.7,0.1,4.1-0.1c0.7-0.1,1.5-0.1,2.2-0.3c0.2-0.1,0.5-0.2,0.7-0.3s0.4-0.2,0.4-0.5s-0.2-0.5-0.4-0.6
			c-0.2-0.1-0.4-0.2-0.6-0.2c-0.8-0.2-1.7-0.2-2.6-0.3c-1,0-2,0-3,0c-0.4,0-0.9,0.1-1.3,0.1L59.6,28.8L59.6,28.8z M49.8,23.8
			c1.8,3.3,3.5,6.7,5.3,10c-0.4,0.1-2.8,0.2-3.8,0.1c-0.3-0.3-0.4-0.7-0.6-1h-7.8c-0.3,0.3-0.3,0.7-0.7,1.1c-1.2,0-2.5,0-3.8,0
			c1.8-3.4,3.6-6.7,5.4-10.1L49.8,23.8L49.8,23.8z M44.4,29.8h4.7c-0.6-1-1.1-2.1-1.7-3.1c-0.4,0-0.9,0-1.4,0
			C45.5,27.8,45,28.8,44.4,29.8z M108.6,33.9h-3.8c-0.2-0.3-0.4-0.7-0.6-1h-7.9c-0.3,0.3-0.3,0.7-0.6,1H92c0.1-0.4,5-9.7,5.3-10.1
			h5.9C103.6,24.3,108.5,33.5,108.6,33.9L108.6,33.9z M99.7,26.7c-0.2,0.3-1.5,2.6-1.6,3.1c0.6,0.1,4.2,0.1,4.6,0
			c-0.6-1-1-2.1-1.7-3C100.5,26.7,100.1,26.7,99.7,26.7L99.7,26.7z M22.7,23.8h3.4c0.2,0.2,0.1,0.4,0.1,0.5c0,1.1,0,2.2,0,3.3
			c0,0.2,0,0.3,0.1,0.5c0.4,0,0.7,0,1.1-0.1c1.1-0.2,2.3-0.4,3.3-1c1.3-0.7,2.3-1.6,2.8-3.1c0-0.1,0-0.2,0.2-0.2h3.5
			c-0.6,2.6-2.2,4.4-4.4,5.7c1.7,1.5,3.3,2.9,4.9,4.3c-0.1,0.2-0.2,0.1-0.3,0.1c-1.3,0-2.6,0-4,0c-0.3,0-0.4-0.1-0.6-0.2
			c-1-0.9-2-1.8-3.1-2.7c-0.2-0.2-0.4-0.2-0.6-0.2c-0.9,0.2-1.8,0.3-2.8,0.3c-0.1,0.5,0,0.9,0,1.3c0,0.4,0,0.9,0,1.3
			c-0.4,0.1-2.8,0.2-3.5,0.1c-0.1-1.1,0-2.2,0-3.3s0-2.2,0-3.3L22.7,23.8L22.7,23.8z"/>
		<path id="karma_x5F_logo_x5F_white" class="st3" d="M83.8,33.4H79c-0.1-0.1-0.2-0.2-0.2-0.3c-0.8-2.1-1.7-4.3-2.5-6.4
			c-0.1-0.2-0.2-0.5-0.6-0.3c0,1.1,0,2.3,0,3.5s0,2.4,0,3.5c-0.4,0.1-3,0.1-3.5,0c-0.1-0.4-0.1-9.5,0-10c2,0,4,0,6.1,0
			c1,2.4,1.9,4.8,2.8,7.1c0.2,0.1,0.4,0.1,0.5,0c0.9-2.3,1.9-4.7,2.8-7.1h6.1c0.1,1.1,0,2.2,0,3.3s0,2.2,0,3.3v3.4
			c-1.2,0.1-2.3,0-3.5,0c0-0.7,0-1.2,0-1.8s0-1.2,0-1.7v-1.8c0-0.6,0-1.2,0-1.7c-0.1-0.2-0.3-0.1-0.4-0.1
			C85.6,28.7,84.7,31,83.8,33.4L83.8,33.4z M67.9,30.1c1.1,0.4,2,0.9,2.6,1.8c0.3,0.5,0.5,1,0.5,1.5c-0.4,0.1-3.2,0.1-3.7,0
			l-0.1-0.1c-0.3-0.9-0.9-1.3-1.8-1.5c-0.9-0.3-1.8-0.4-2.8-0.4c-1.1,0-2.2,0-3.3,0c-0.1,0-0.3,0-0.4,0.1c-0.1,0.6,0,1.3-0.1,1.9
			c-0.4,0.1-2.9,0.1-3.4,0c-0.1-0.4-0.1-9.5,0-10c0.3,0,0.5-0.1,0.8-0.1c2.5-0.1,5-0.2,7.5-0.1c1.3,0.1,2.6,0.2,3.9,0.7
			c0.6,0.2,1.1,0.4,1.6,0.8c1.2,0.8,1.5,2.2,1.1,3.4c-0.3,0.8-0.9,1.2-1.6,1.6C68.5,29.8,68.2,29.9,67.9,30.1L67.9,30.1z M59.1,28.3
			c0.2,0,0.4,0,0.6,0c1.4,0,2.7,0.1,4.1-0.1c0.7-0.1,1.5-0.1,2.2-0.3c0.2-0.1,0.5-0.2,0.7-0.3s0.4-0.2,0.4-0.5s-0.2-0.5-0.4-0.6
			c-0.2-0.1-0.4-0.2-0.6-0.2c-0.8-0.2-1.7-0.2-2.6-0.3c-1,0-2,0-3,0c-0.4,0-0.9,0.1-1.3,0.1L59.1,28.3L59.1,28.3z M49.3,23.4
			c1.8,3.3,3.5,6.7,5.3,10c-0.4,0.1-2.8,0.2-3.8,0.1c-0.3-0.3-0.4-0.7-0.6-1h-7.8c-0.3,0.3-0.3,0.7-0.7,1.1c-1.2,0-2.5,0-3.8,0
			c1.8-3.4,3.6-6.7,5.4-10.1L49.3,23.4L49.3,23.4z M43.9,29.4h4.7c-0.6-1-1.1-2.1-1.7-3.1c-0.4,0-0.9,0-1.4,0
			C45,27.3,44.5,28.3,43.9,29.4z M108.1,33.4h-3.8c-0.2-0.3-0.4-0.7-0.6-1h-7.9c-0.3,0.3-0.3,0.7-0.6,1h-3.7c0.1-0.4,5-9.7,5.3-10.1
			h5.9C103.1,23.9,108,33,108.1,33.4L108.1,33.4z M99.2,26.3c-0.2,0.3-1.5,2.6-1.6,3.1c0.6,0.1,4.2,0.1,4.6,0c-0.6-1-1-2.1-1.7-3
			C100,26.3,99.6,26.2,99.2,26.3L99.2,26.3z M22.2,23.4h3.4c0.2,0.2,0.1,0.4,0.1,0.5c0,1.1,0,2.2,0,3.3c0,0.2,0,0.3,0.1,0.5
			c0.4,0,0.7,0,1.1-0.1c1.1-0.2,2.3-0.4,3.3-1c1.3-0.7,2.3-1.6,2.8-3.1c0-0.1,0-0.2,0.2-0.2h3.5c-0.6,2.6-2.2,4.4-4.4,5.7
			c1.7,1.5,3.3,2.9,4.9,4.3c-0.1,0.2-0.2,0.1-0.3,0.1c-1.3,0-2.6,0-4,0c-0.3,0-0.4-0.1-0.6-0.2c-1-0.9-2-1.8-3.1-2.7
			c-0.2-0.2-0.4-0.2-0.6-0.2c-0.9,0.2-1.8,0.3-2.8,0.3c-0.1,0.5,0,0.9,0,1.3c0,0.4,0,0.9,0,1.3c-0.4,0.1-2.8,0.2-3.5,0.1
			c-0.1-1.1,0-2.2,0-3.3s0-2.2,0-3.3L22.2,23.4L22.2,23.4z"/>
	</g>
</g>

<g id="MC_Icon">
	<path id="MC_icon_glass" class="st13" d="M342.4,220c-1.2,0-2.4-0.3-3.4-0.9l-2.4-1.4l-2.4,1.4c-1,0.6-2.2,0.9-3.4,0.9h-5.2
		c-1.2,0-2.4-0.3-3.4-0.9l-4.5-2.6c-1-0.6-1.9-1.5-2.5-2.5l-2.6-4.5c-0.6-1-0.9-2.2-0.9-3.4v-5.2c0-1.2,0.3-2.4,0.9-3.4l2.6-4.5
		c0.6-1,1.5-1.9,2.5-2.5l4.5-2.6c1-0.6,2.2-0.9,3.4-0.9h5.2c1.2,0,2.4,0.3,3.4,0.9l2.4,1.4l2.4-1.4c1-0.6,2.2-0.9,3.4-0.9h5.2
		c1.2,0,2.4,0.3,3.4,0.9l4.5,2.6c1,0.6,1.9,1.5,2.5,2.5l2.6,4.5c0.6,1,0.9,2.2,0.9,3.4v5.2c0,1.2-0.3,2.4-0.9,3.4L358,214
		c-0.6,1-1.5,1.9-2.5,2.5l-4.5,2.6c-1,0.6-2.2,0.9-3.4,0.9H342.4z"/>
	
		<linearGradient id="MC_icon_gold_00000063626082105684162350000002040319569383501967_" gradientUnits="userSpaceOnUse" x1="336.55" y1="51" x2="336.55" y2="22.3" gradientTransform="matrix(1 0 0 -1 0 240)">
		<stop  offset="0" style="stop-color:#FBEA95"/>
		<stop  offset="0.6227" style="stop-color:#F7DB63"/>
		<stop  offset="0.6408" style="stop-color:#F4D760"/>
		<stop  offset="0.6601" style="stop-color:#EBCA56"/>
		<stop  offset="0.6798" style="stop-color:#DCB546"/>
		<stop  offset="0.6994" style="stop-color:#C89831"/>
		<stop  offset="1" style="stop-color:#F7DB63"/>
	</linearGradient>
	<path id="MC_icon_gold" style="fill:url(#MC_icon_gold_00000063626082105684162350000002040319569383501967_);" d="M358.4,198.4
		L358.4,198.4l-2.5-4.4c-0.4-0.7-1-1.4-1.8-1.8l-4.4-2.5c-0.7-0.4-1.6-0.7-2.4-0.7h-5.1c-0.9,0-1.7,0.2-2.4,0.7l-1.8,1.1l-1.4,0.8
		l-1.4-0.8l-1.8-1.1c-0.7-0.4-1.6-0.7-2.4-0.7h-5.1c-0.9,0-1.7,0.2-2.4,0.7l-4.4,2.5c-0.7,0.4-1.4,1-1.8,1.8l-2.5,4.4
		c-0.4,0.7-0.7,1.6-0.7,2.4v5.1c0,0.9,0.2,1.7,0.7,2.4l2.5,4.4c0.4,0.7,1,1.4,1.8,1.8l4.4,2.5c0.7,0.4,1.6,0.7,2.4,0.7h5.1
		c0.9,0,1.7-0.2,2.4-0.7l1.8-1.1l1.4-0.8l1.2-0.7c0.3-0.1,0.5-0.3,0.7-0.5c0.4-0.3,0.7-0.7,0.9-1c0-0.1,0.1-0.1,0.1-0.2l2.5-4.4
		c0.4-0.7,0.7-1.6,0.7-2.4v-5.1c0-0.9-0.2-1.7-0.7-2.4l0,0l-2.5-4.4c0-0.1-0.1-0.1-0.1-0.2l-1.7,1c0.1,0.1,0.1,0.1,0.1,0.2l2.5,4.4
		c0.3,0.4,0.4,0.9,0.4,1.4v0.8l-2,1.2c-0.4,0.2-0.4,0.8,0,1l2,1.2v0.8c0,0.5-0.1,1-0.4,1.4l-2.5,4.4c0,0.1-0.1,0.1-0.1,0.2
		c-0.2,0.3-0.5,0.6-0.9,0.8l-0.2,0.1l-0.2-0.1c-0.4-0.2-0.7-0.5-0.9-0.8c-0.1-0.1-0.1-0.1-0.1-0.2l-2.5-4.4
		c-0.3-0.4-0.4-0.9-0.4-1.4v-0.7l2-1.2c0.4-0.2,0.4-0.8,0-1l-2-1.2v-0.8c0-0.5,0.1-1,0.4-1.4l2.5-4.4c0-0.1,0.1-0.1,0.1-0.2
		c0.2-0.3,0.5-0.6,0.9-0.8l0.2-0.1l1.9-1.1l1.2-0.7l1-0.6c0.4-0.3,0.9-0.4,1.4-0.4h0.8l1.2,2c0.2,0.4,0.8,0.4,1,0l1.2-2h0.8
		c0.5,0,1,0.1,1.4,0.4l4.4,2.5c0.4,0.3,0.8,0.6,1,1l2.5,4.4c0.3,0.4,0.4,0.9,0.4,1.4v0.8l-2,1.2c-0.4,0.2-0.4,0.8,0,1l2,1.2v0.8
		c0,0.5-0.1,1-0.4,1.4l-2.5,4.4c-0.3,0.4-0.6,0.8-1,1l-4.4,2.5c-0.4,0.3-0.9,0.4-1.4,0.4h-0.8l-1.2-2c-0.2-0.4-0.8-0.4-1,0l-1.2,2
		h-0.8c-0.5,0-1-0.1-1.4-0.4l-1-0.6c-0.4,0.4-0.8,0.7-1.3,1l-0.5,0.3l1.8,1.1c0.7,0.4,1.6,0.7,2.4,0.7h5.1c0.9,0,1.7-0.2,2.4-0.7
		l4.4-2.5c0.7-0.4,1.4-1,1.8-1.8l2.5-4.4c0.4-0.7,0.7-1.6,0.7-2.4v-5.1C359,200,358.8,199.2,358.4,198.4z M333.8,193.8
		c0,0.1-0.1,0.1-0.1,0.2l-2.5,4.4c-0.4,0.7-0.7,1.6-0.7,2.4v5.1c0,0.9,0.2,1.7,0.7,2.4l2.5,4.4c0,0.1,0.1,0.1,0.1,0.2
		c0.3,0.4,0.6,0.7,0.9,1l-1.2,0.7l-1,0.6c-0.4,0.3-0.9,0.4-1.4,0.4h-0.8l-1.2-2c-0.2-0.4-0.8-0.4-1,0l-1.2,2h-0.8
		c-0.5,0-1-0.1-1.4-0.4l-4.4-2.5c-0.4-0.3-0.8-0.6-1-1l-2.5-4.4c-0.3-0.4-0.4-0.9-0.4-1.4v-0.8l2-1.2c0.4-0.2,0.4-0.8,0-1l-2-1.2
		v-0.8c0-0.5,0.1-1,0.4-1.4l2.5-4.4c0.3-0.4,0.6-0.8,1-1l4.4-2.5c0.4-0.3,0.9-0.4,1.4-0.4h0.8l1.2,2c0.2,0.4,0.8,0.4,1,0l1.2-2h0.8
		c0.5,0,1,0.1,1.4,0.4l1,0.6l1.2,0.7C334.3,193.1,334,193.4,333.8,193.8z"/>
</g>

<g id="Gold">
	<g id="gold_text">
		
			<linearGradient id="gold_base_00000115488825645220537010000001566246244061980326_" gradientUnits="userSpaceOnUse" x1="54.65" y1="35.5563" x2="54.65" y2="20.4894" gradientTransform="matrix(1 0 0 -1 0 240)">
			<stop  offset="0" style="stop-color:#B88C39"/>
			<stop  offset="4.777926e-02" style="stop-color:#CBA446"/>
			<stop  offset="0.1104" style="stop-color:#DEBC53"/>
			<stop  offset="0.1766" style="stop-color:#ECCD5C"/>
			<stop  offset="0.248" style="stop-color:#F4D861"/>
			<stop  offset="0.3338" style="stop-color:#F7DB63"/>
			<stop  offset="0.365" style="stop-color:#F4D760"/>
			<stop  offset="0.3982" style="stop-color:#EBCA56"/>
			<stop  offset="0.4323" style="stop-color:#DCB546"/>
			<stop  offset="0.466" style="stop-color:#C89831"/>
			<stop  offset="1" style="stop-color:#F7DB63"/>
		</linearGradient>
		<path id="gold_base" style="fill:url(#gold_base_00000115488825645220537010000001566246244061980326_);" d="M30.2,217.6
			c-5,0-8.2-1.1-8.2-5.4c0-3.9,2.2-5.4,8.2-5.4c3.5,0,6.5,0.8,6.5,0.8v2.9c0,0-3.5-0.8-6.5-0.8c-2,0-4.7-0.2-4.7,2.5
			c0,2,1.4,2.5,4.7,2.5c1.6,0,2.9-0.1,4-0.3v-2.2h3.2v4.4C37.4,216.6,33.8,217.6,30.2,217.6z M39.3,212.2c0-3.8,2.5-5.5,8.4-5.5
			s8.4,1.7,8.4,5.5s-2.5,5.5-8.4,5.5S39.3,216,39.3,212.2z M47.7,214.7c3.5,0,4.8-0.7,4.8-2.6c0-1.8-1.4-2.6-4.8-2.6
			c-3.5,0-4.8,0.7-4.8,2.6C42.8,214,44.2,214.7,47.7,214.7z M57.7,207h3.5v7.3h9v2.9H57.7V207z M72.1,207c1.9-0.2,3.8-0.3,5.6-0.3
			c5.3,0,9.6,1.1,9.6,5.4s-4.3,5.4-9.6,5.4c-1.8,0-3.7-0.1-5.6-0.3V207z M75.6,214.5c4.5,0.1,8.2-0.2,8.2-2.4c0-2.3-3.7-2.6-8.2-2.4
			V214.5z"/>
		<g id="gold_shadow" class="st2">
			<path class="st16" d="M43.4,213.8c-0.4-0.4-0.6-0.9-0.6-1.6c0-1.8,1.4-2.6,4.8-2.6c1.9,0,3.2,0.2,3.9,0.7c-0.7-0.7-2-1-4.2-1
				c-3.5,0-4.8,0.7-4.8,2.6C42.5,212.8,42.8,213.4,43.4,213.8z"/>
			<rect x="60.9" y="207" class="st16" width="0.3" height="7.1"/>
			<path class="st16" d="M75.6,209.8c3.2-0.1,5.9,0,7.3,0.8c-1.2-1.1-4.2-1.2-7.6-1.1v4.8c0.1,0,0.2,0,0.3,0
				C75.6,214.3,75.6,209.8,75.6,209.8z"/>
			<path class="st16" d="M36.4,210.3c0,0-3.5-0.8-6.5-0.8c-2,0-4.7-0.2-4.7,2.5c0,0.9,0.3,1.5,0.9,1.9c-0.4-0.4-0.6-0.9-0.6-1.6
				c0-2.7,2.6-2.5,4.7-2.5c2.9,0,6.5,0.8,6.5,0.8v-2.9c0,0-0.1,0-0.3-0.1V210.3z"/>
			<path class="st16" d="M85.5,208.4c1,0.8,1.6,2,1.6,3.6c0,4.3-4.3,5.4-9.6,5.4c-1.7,0-3.5-0.1-5.3-0.3v0.2
				c1.9,0.2,3.8,0.3,5.6,0.3c5.3,0,9.6-1.1,9.6-5.4C87.4,210.4,86.7,209.2,85.5,208.4z"/>
			<polygon class="st16" points="69.9,217.1 57.7,217.1 57.7,217.3 70.2,217.3 70.2,214.4 69.9,214.4 			"/>
			<path class="st16" d="M54,208c1.2,0.9,1.7,2.2,1.7,4c0,3.8-2.5,5.5-8.4,5.5c-2.9,0-5-0.4-6.3-1.3c1.3,1,3.5,1.5,6.7,1.5
				c5.9,0,8.4-1.7,8.4-5.5C56,210.2,55.4,208.8,54,208z"/>
			<path class="st16" d="M37.1,216.3c0,0-3.6,1-7.2,1c-2.7,0-4.8-0.3-6.3-1.3c1.4,1.1,3.7,1.5,6.6,1.5c3.6,0,7.2-1,7.2-1v-4.4h-0.3
				V216.3z"/>
		</g>
		<g id="gold_highlight" class="st2">
			<rect x="61.5" y="214.4" class="st3" width="8.7" height="0.3"/>
			<path class="st3" d="M34.2,214.4c-1.1,0.2-2.4,0.3-4,0.3c-1.9,0-3.2-0.2-3.9-0.7c0.7,0.7,2,1,4.2,1c1.6,0,2.9-0.1,4-0.3v-2.2h2.9
				v-0.3h-3.2V214.4z"/>
			<path class="st3" d="M48,215c3.5,0,4.8-0.7,4.8-2.6c0-0.8-0.3-1.4-0.8-1.8c0.3,0.4,0.5,0.9,0.5,1.5c0,1.8-1.4,2.6-4.8,2.6
				c-2,0-3.3-0.2-4-0.8C44.3,214.7,45.7,215,48,215z"/>
			<path class="st3" d="M84.2,212.4c0-0.6-0.3-1.1-0.7-1.4c0.3,0.3,0.4,0.7,0.4,1.2c0,2.1-3.5,2.5-7.9,2.4v0.3
				C80.5,215,84.2,214.6,84.2,212.4z"/>
			<path class="st3" d="M72.4,207.3c1.9-0.2,3.8-0.3,5.6-0.3c3.3,0,6.2,0.4,7.9,1.8c-1.7-1.6-4.7-2.1-8.2-2.1
				c-1.8,0-3.7,0.1-5.6,0.3v10.3c0.1,0,0.2,0,0.3,0C72.4,217.3,72.4,207.3,72.4,207.3z"/>
			<polygon class="st3" points="58,207.3 61.2,207.3 61.2,207 57.7,207 57.7,217.3 58,217.3 			"/>
			<path class="st3" d="M22.3,212.4c0-3.9,2.2-5.4,8.2-5.4c2.9,0,5.3,0.5,6.2,0.7v-0.2c0,0-3-0.8-6.5-0.8c-6,0-8.2,1.5-8.2,5.4
				c0,1.8,0.6,3,1.5,3.9C22.8,215.2,22.3,214,22.3,212.4z"/>
			<path class="st3" d="M39.6,212.4c0-3.8,2.5-5.5,8.4-5.5c3.2,0,5.4,0.6,6.7,1.6c-1.3-1.3-3.6-1.8-7-1.8c-5.9,0-8.4,1.7-8.4,5.5
				c0,1.7,0.5,3,1.6,3.9C40,215.2,39.6,214,39.6,212.4z"/>
		</g>
	</g>
</g>

<g id="Chip">
	
		<linearGradient id="chip_x5F_base_00000014610670728403062500000004695738675887147187_" gradientUnits="userSpaceOnUse" x1="32.1411" y1="147.3684" x2="63.8589" y2="92.4316" gradientTransform="matrix(1 0 0 -1 0 240)">
		<stop  offset="0" style="stop-color:#B28E48"/>
		<stop  offset="0.4848" style="stop-color:#66400F"/>
		<stop  offset="1" style="stop-color:#895E15"/>
	</linearGradient>
	<path id="chip_x5F_base" style="fill:url(#chip_x5F_base_00000014610670728403062500000004695738675887147187_);" d="M70,143.1H26
		c-3.3,0-6-2.7-6-6v-34c0-3.3,2.7-6,6-6h44c3.3,0,6,2.7,6,6v34C76,140.4,73.3,143.1,70,143.1z"/>
	
		<linearGradient id="chip_x5F_top_00000111150463379120408750000008730067034973095061_" gradientUnits="userSpaceOnUse" x1="33.1403" y1="145.6377" x2="62.8234" y2="94.225" gradientTransform="matrix(1 0 0 -1 0 240)">
		<stop  offset="0" style="stop-color:#BF9746"/>
		<stop  offset="0.2758" style="stop-color:#8D5818"/>
		<stop  offset="0.3711" style="stop-color:#9B6925"/>
		<stop  offset="0.5597" style="stop-color:#BE9645"/>
		<stop  offset="0.5641" style="stop-color:#BF9746"/>
		<stop  offset="1" style="stop-color:#8D5818"/>
	</linearGradient>
	<path id="chip_x5F_top" style="fill:url(#chip_x5F_top_00000111150463379120408750000008730067034973095061_);" d="M67.3,106.1
		c0.4-2.1,0.7-4.4,0.7-7h2c2.2,0,4,1.8,4,4v3H67.3z M65.3,106.1c0.5-2.1,0.7-4.4,0.7-7h-6c0,2.6-0.3,4.9-0.9,7H65.3z M74,132.1v-24
		h-7.2c-1.8,6.4-5.5,10.6-9.1,13.3l12.2,10.7H74z M66.9,132.1c-1-0.9-11.9-10.4-12.5-10.9c4.5-2.8,8.1-6.3,10.3-13.1h-6.4
		c-4.5,11.7-20.4,11-20.4,11v-11h-7v24h7v-7c0,0,6,0.1,10.2-1.3c1.1,1,8.2,7.1,9.4,8.2h9.4V132.1z M72.2,134.1l1.8,1.5v-1.5H72.2z
		 M56.9,106.1c0.7-2,1.1-4.3,1.1-7H40v7H56.9z M56.1,108.1H40v9C44,116.9,52.4,115.6,56.1,108.1z M40,127.1v5h14.6l-6.9-6
		C44.7,126.8,42,127,40,127.1z M38,106.1v-7h-7v7H38z M69.2,134.1h-9.3l8,7h2c1.8,0,3.4-1.3,3.8-3L69.2,134.1z M31,134.1v7h7v-7H31z
		 M56.9,134.1H40v7h24.9L56.9,134.1z M29,99.1h-3c-2.2,0-4,1.8-4,4v3h7V99.1z M22,134.1v3c0,2.2,1.8,4,4,4h3v-7H22z M29,108.1h-7v24
		h7V108.1z"/>
	<g id="chip_x5F_highlight">
		<path class="st19" d="M59.1,106.1c0.6-2.1,0.9-4.4,0.9-7h6l-0.3,0.5h-5.2c0,2.3-0.3,4.3-0.7,6.2L59.1,106.1z"/>
		<path class="st19" d="M48.2,126.5c-3,0.8-5.7,1-7.7,1.1v4.5H40v-5c2-0.1,4.7-0.3,7.7-1.1L48.2,126.5z"/>
		<path class="st19" d="M58.9,108.6h5.3l0.5-0.5h-6.4c-4,10.5-17.2,11-19.9,11h-0.5l-0.2,0.5h0.8C40,119.7,54.6,119.8,58.9,108.6z"
			/>
		<polygon class="st19" points="69.7,134.6 60.5,134.6 59.9,134.1 69.2,134.1 		"/>
		<path class="st19" d="M67.3,106.1c0.4-2.1,0.7-4.4,0.7-7h2c0.9,0,1.7,0.3,2.3,0.8c-0.4-0.2-0.9-0.3-1.3-0.3h-2.5
			c0,2.3-0.2,4.3-0.5,6.2L67.3,106.1z"/>
		<path class="st19" d="M66.8,108.1c-1.8,6.4-5.5,10.6-9.1,13.3l0.5,0.5c3.6-2.7,7.3-6.9,9.1-13.3h6.4l0.2-0.5H66.8z"/>
		<polygon class="st19" points="72.8,134.6 73.8,134.6 74,134.1 72.2,134.1 		"/>
		<polygon class="st19" points="31.5,99.6 37.7,99.6 38,99.1 31,99.1 31,106.1 31.5,105.9 		"/>
		<path class="st19" d="M22,137.1c0,0.9,0.3,1.7,0.8,2.3c-0.2-0.4-0.3-0.9-0.3-1.3v-3.5h6.3l0.2-0.5h-7V137.1z"/>
		<polygon class="st19" points="40.5,99.6 57.7,99.6 58,99.1 40,99.1 40,106.1 40.5,105.9 		"/>
		<polygon class="st19" points="57.5,134.6 40.5,134.6 40.5,140.9 40,141.1 40,134.1 56.9,134.1 		"/>
		<polygon class="st19" points="22,132.1 22.5,131.8 22.5,108.6 28.8,108.6 29,108.1 22,108.1 		"/>
		<polygon class="st19" points="31,141.1 31.5,140.9 31.5,134.6 37.8,134.6 38,134.1 31,134.1 		"/>
		<polygon class="st19" points="40,117.1 40,108.1 56.1,108.1 55.4,108.6 40.5,108.6 40.5,116.8 		"/>
		<polygon class="st19" points="31.5,108.6 37.8,108.6 38,108.1 31,108.1 31,132.1 31.5,131.8 		"/>
		<path class="st19" d="M22,103.1v3l0.5-0.2v-2.8c0-1.9,1.6-3.5,3.5-3.5h2.7l0.3-0.5h-3C23.8,99.1,22,100.9,22,103.1z"/>
	</g>
	<g id="chip_x5F_shadow">
		<path class="st20" d="M28.8,140.9h-3c-1,0-2-0.4-2.7-1.1c0.7,0.8,1.8,1.3,2.9,1.3h3v-7h-0.2C28.8,134.1,28.8,140.9,28.8,140.9z"/>
		<polygon class="st20" points="37.8,105.9 31,105.9 31,106.1 38,106.1 38,99.1 37.8,99.1 		"/>
		<polygon class="st20" points="28.8,131.8 22,131.8 22,132.1 29,132.1 29,108.1 28.8,108.1 		"/>
		<path class="st20" d="M56.1,108.1h-0.4c-3.7,7.2-11.7,8.5-15.7,8.7v0.3C44,116.9,52.4,115.6,56.1,108.1z"/>
		<path class="st20" d="M64.7,108.1h-0.3c-2.2,6.6-5.7,10.1-10.2,12.8c0,0,0.1,0.1,0.3,0.2C59,118.4,62.5,114.9,64.7,108.1z"/>
		<polygon class="st20" points="38,108.1 37.8,108.1 37.8,119.6 38,119.1 		"/>
		<path class="st20" d="M65,105.9h-5.9c0,0.1,0,0.2-0.1,0.2h6.2c0.5-2.1,0.7-4.4,0.7-7h-0.3C65.7,101.6,65.5,103.8,65,105.9z"/>
		<polygon class="st20" points="28.8,105.9 22,105.9 22,106.1 29,106.1 29,99.1 28.8,99.1 		"/>
		<path class="st20" d="M56.7,105.9H40v0.2h16.9c0.7-2,1.1-4.3,1.1-7h-0.3C57.7,101.7,57.3,103.9,56.7,105.9z"/>
		<polygon class="st20" points="74,135.6 74,134.1 73.8,134.1 73.8,135.4 		"/>
		<polygon class="st20" points="37.8,140.9 31,140.9 31,141.1 38,141.1 38,134.1 37.8,134.1 		"/>
		<path class="st20" d="M72.7,100.2c0.7,0.7,1.1,1.7,1.1,2.7v3h-6.4c0,0.1,0,0.2,0,0.2h6.7v-3C74,101.9,73.5,100.9,72.7,100.2z"/>
		<path class="st20" d="M68,141.1h2c1.8,0,3.4-1.3,3.8-3l-0.3-0.2c-0.5,1.7-2,2.9-3.8,2.9h-2L68,141.1z"/>
		<polygon class="st20" points="69.9,132.1 74,132.1 74,108.1 73.8,108.1 73.8,131.8 69.7,131.8 		"/>
		<path class="st20" d="M48.2,123.8c-4.2,1.4-10.2,1.3-10.2,1.3v7h-7v-0.2h6.8v-7c0,0,6,0.1,10.2-1.3L48.2,123.8z"/>
		<path class="st20" d="M57.6,132.1h9.3c-0.1-0.1-0.2-0.1-0.3-0.2h-9.3L57.6,132.1z"/>
		<polygon class="st20" points="54.3,131.8 40,131.8 40,132.1 54.6,132.1 		"/>
		<polygon class="st20" points="40,140.9 40,141.1 64.9,141.1 64.6,140.9 		"/>
	</g>
</g>

</svg>
