<?xml version="1.0" encoding="utf-8"?>
<!-- Generator: Adobe Illustrator 28.3.0, SVG Export Plug-In . SVG Version: 6.00 Build 0)  -->
<svg version="1.1" id="Gold_Card" xmlns="http://www.w3.org/2000/svg" xmlns:xlink="http://www.w3.org/1999/xlink" x="0px" y="0px"
	 viewBox="0 0 380 240" style="enable-background:new 0 0 380 240;" xml:space="preserve">

<defs>
    <filter id="grainy" x="0%" y="0%" width="100%" height="100%" filterUnits="objectBoundingBox" primitiveUnits="userSpaceOnUse" color-interpolation-filters="linearRGB">
	    <feTurbulence type="turbulence" baseFrequency="0.102" numOctaves="4" seed="15" stitchTiles="stitch" x="0%" y="0%" width="100%" height="100%" result="turbulence"></feTurbulence>
	<feSpecularLighting surfaceScale="16" specularConstant="3" specularExponent="20" lighting-color="#ad883e" x="0%" y="0%" width="100%" height="100%" in="turbulence" result="specularLighting">
    		<feDistantLight azimuth="3" elevation="19"></feDistantLight>
  	    </feSpecularLighting>
  
    </filter>

     <clipPath id="clipShape">
            <path d="M365,0H15C6.7,0,0,6.7,0,15v210c0,8.3,6.7,15,15,15h350c8.3,0,15-6.7,15-15V15C380,6.7,373.3,0,365,0z
			 M269,134c0,4.7-1.2,9.3-3.6,13.4l-14,24.2c-2.4,4.1-5.7,7.5-9.8,9.8l-24.2,14c-4.1,2.4-8.7,3.6-13.4,3.6h-28
			c-4.7,0-9.3-1.2-13.4-3.6l-24.2-14c-4.1-2.4-7.5-5.7-9.8-9.8l-14-24.2c-2.4-4.1-3.6-8.7-3.6-13.4v-28c0-4.7,1.2-9.3,3.6-13.4
			l14-24.2c2.4-4.1,5.7-7.5,9.8-9.8l24.2-14c4.1-2.4,8.7-3.6,13.4-3.6h28c4.7,0,9.3,1.2,13.4,3.6l24.2,14c4.1,2.4,7.5,5.7,9.8,9.8
			l14,24.2c2.4,4.1,3.6,8.7,3.6,13.4V134z"/>
        </clipPath>

</defs>

<style type="text/css">
	.st0{fill:url(#logo-background_00000142859947033532728670000008521725826200026515_);}
	.st1{fill:url(#logo-inner_00000119813580495034316270000017920716060242854038_);}
	.st2{opacity:0.25;}
	.st3{fill:#FFFFFF;}
	.st4{fill:#60431D;}
	.st5{display:none;fill:#FF0049;}
	.st6{fill:url(#card_x5F_base_00000122694466056321695090000012474278915454873010_);}
	.st7{opacity:0.5;fill:#FFFFFF;enable-background:new    ;}
	.st8{opacity:0.5;fill:#231F20;enable-background:new    ;}
	.st9{fill:url(#frame-base_00000172442395661907982000000007347196366174403984_);}
	.st10{fill:#7F7F7F;opacity: .1;
          filter: brightness(1) contrast(1);
          transition: all .33s ease;
          mix-blend-mode: color-dodge;}
	.st11{opacity:0.25;fill:#FFFFFF;enable-background:new    ;}
	.st12{opacity:0.25;fill:#231F20;enable-background:new    ;}
	.st13{opacity:0.1;fill:#47310B;enable-background:new    ;}
	.st14{fill:url(#MC_icon_gold_00000011716005848833163260000015329021091945566375_);}
	.st15{fill:url(#gold_base_00000055701652857582066220000000918186761559568821_);}
	.st16{fill:#231F20;}
	.st17{fill:url(#chip_x5F_base_00000036214114913766346650000009710178402929822599_);}
	.st18{fill:url(#chip_x5F_top_00000076563328557786576400000004585113674268543892_);}
	.st19{fill:#E0AF58;}
	.st20{fill:#93682A;}
</style>

<g id="Karma_Logo_00000124872112112605698500000003593566490086987169_">
	
		<linearGradient id="logo-background_00000154407075140955405360000015903361158993310091_" gradientUnits="userSpaceOnUse" x1="190" y1="40.9" x2="190" y2="198.9" gradientTransform="matrix(1 0 0 -1 0 240)">
		<stop  offset="0" style="stop-color:#F4D762"/>
		<stop  offset="0.2439" style="stop-color:#CCA343"/>
		<stop  offset="0.3156" style="stop-color:#F7DB63"/>
		<stop  offset="1" style="stop-color:#D3B354"/>
	</linearGradient>
	<path id="logo-background" style="fill:url(#logo-background_00000154407075140955405360000015903361158993310091_);" d="
		M269,134.1c0,4.7-1.2,9.3-3.6,13.4l-14,24.2c-2.4,4.1-5.7,7.5-9.8,9.8l-24.2,14c-4.1,2.4-8.7,3.6-13.4,3.6h-28
		c-4.7,0-9.3-1.2-13.4-3.6l-24.2-14c-4.1-2.4-7.5-5.7-9.8-9.8l-14-24.2c-2.4-4.1-3.6-8.7-3.6-13.4v-28c0-4.7,1.2-9.3,3.6-13.4
		l14-24.2c2.4-4.1,5.7-7.5,9.8-9.8l24.2-14c4.1-2.4,8.7-3.6,13.4-3.6h28c4.7,0,9.3,1.2,13.4,3.6l24.2,14c4.1,2.4,7.5,5.7,9.8,9.8
		l14,24.2l0,0c2.4,4.1,3.6,8.7,3.6,13.4V134.1z"/>
	
		<linearGradient id="logo-inner_00000159451599257986908470000004072214349295049150_" gradientUnits="userSpaceOnUse" x1="158.3417" y1="174.7338" x2="222.7137" y2="63.2381" gradientTransform="matrix(1 0 0 -1 0 240)">
		<stop  offset="0" style="stop-color:#CDA544"/>
		<stop  offset="0.1409" style="stop-color:#BA8D36"/>
		<stop  offset="0.294" style="stop-color:#AB782A"/>
		<stop  offset="0.397" style="stop-color:#A57126"/>
		<stop  offset="0.4718" style="stop-color:#AE7C2C"/>
		<stop  offset="0.6614" style="stop-color:#BF9339"/>
		<stop  offset="0.8413" style="stop-color:#C9A041"/>
		<stop  offset="1" style="stop-color:#CDA544"/>
	</linearGradient>
	<path id="logo-inner" style="fill:url(#logo-inner_00000159451599257986908470000004072214349295049150_);" d="M241.9,74
		c-1.4-2.4-3.4-4.4-5.8-5.8l-24.2-14c-2.4-1.4-5.1-2.1-7.9-2.1h-4.5l-6.8,11.3c-1.2,2-4.2,2-5.4,0l-6.8-11.3H176
		c-2.8,0-5.5,0.7-7.9,2.1l-24.2,14c-2.4,1.4-4.4,3.4-5.8,5.8l-14,24.2c-1.4,2.4-2.1,5.1-2.1,7.9v4.5l11.3,6.8c2,1.2,2,4.2,0,5.4
		l-11.3,6.8v4.5c0,2.8,0.7,5.5,2.1,7.9l14,24.2c1.4,2.4,3.4,4.4,5.8,5.8l24.2,14c2.4,1.4,5.1,2.1,7.9,2.1h4.5l6.8-11.3
		c1.2-2,4.2-2,5.4,0l6.8,11.3h4.5c2.8,0,5.5-0.7,7.9-2.1l24.2-14c2.4-1.4,4.4-3.4,5.8-5.8l14-24.2c1.4-2.4,2.1-5.1,2.1-7.9v-4.5
		l-11.3-6.8c-2-1.2-2-4.2,0-5.4l11.3-6.8v-4.5c0-2.8-0.7-5.5-2.1-7.9L241.9,74z M233.6,86.6l-32.8,34.3l0,0l23.4,19.4
		c2.7,2.3,4.3,5.6,4.3,9.1v12.2c0,1.6-1.3,3-3,3h-14.8c-1.6,0-3-1.3-3-3v-7.3c0-0.9-0.4-1.7-1.1-2.3l-19.9-16.5l0,0l-19.5,20.4
		c-5,5.3-11.3,8.7-18.8,8.7c-1.6,0-3-1.3-3-3c0-18.4,14.8-17.9,14.8-53.6c0-15.5-4.4-23.5-8.9-23.5h-2.9c-1.6,0-3-1.3-3-3v-2.9
		c0-1.6,1.3-3,3-3c3.4,0,4.5,5.9,8.9,5.9h5.9c10.4,0,17.8,10,17.8,31.3c0,5.9-0.9,16.6-2.7,22.6c-0.2,0.7,0.7,1.1,1.1,0.5
		c5.1-8.1,8.2-18.4,8.9-28.3c0-0.3,0.2-0.7,0.4-0.9l21.4-22.4c1.6-1.7,3.9-2.8,6.4-2.8h14.8l0,0c1.6,0,3,1.3,3,3
		C234.5,85.3,234.2,86.1,233.6,86.6z M150,78.6v3c0,0.8-0.7,1.5-1.5,1.5s-1.5-0.7-1.5-1.5v-3c0-0.8,0.7-1.5,1.5-1.5
		S150,77.8,150,78.6z"/>
	<g id="logo-highlights" class="st2">
		<path class="st3" d="M148.5,83c0.8,0,1.5-0.7,1.5-1.5v-3c0-0.7-0.5-1.2-1.1-1.4c0,0.1,0.1,0.3,0.1,0.4v3c0,0.8-0.7,1.5-1.5,1.5
			c-0.1,0-0.3,0-0.4-0.1C147.3,82.6,147.8,83,148.5,83z"/>
		<path class="st3" d="M147.5,74.6c-1.7,0-3,1.4-3,3v2.9c0,1.1,0.6,2,1.4,2.5c-0.3-0.5-0.4-1-0.4-1.5v-2.9c0-1.6,1.3-3,3-3
			c0.8,0,1.5,0.4,2.2,0.9C149.7,75.5,148.8,74.6,147.5,74.6z"/>
		<path class="st3" d="M133.4,117.4c-0.3-0.4-0.6-0.8-1-1l-10.3-6.2v0.4L133.4,117.4C133.3,117.4,133.3,117.4,133.4,117.4z"/>
		<path class="st3" d="M208.2,163.2c-0.3-0.5-0.4-1-0.4-1.5v-7.3c0-0.9-0.4-1.7-1.1-2.3l-0.4-0.4c0.3,0.5,0.5,1.1,0.5,1.7v7.3
			C206.8,161.7,207.4,162.6,208.2,163.2z"/>
		<path class="st3" d="M163.3,81.5c3.6,0,6.8,1.2,9.5,3.6c-2.9-3.1-6.5-4.6-10.5-4.6h-5.9c-1.3,0-2.4-0.6-3.3-1.3
			c1.1,1.2,2.4,2.3,4.3,2.3H163.3z"/>
		<path class="st3" d="M178.4,135.4c-0.2,0.7,0.7,1.1,1.1,0.5c5.1-8.1,8.2-18.4,8.9-28.3c0-0.3,0.2-0.7,0.4-0.9l21.4-22.4
			c1.6-1.7,3.9-2.8,6.4-2.8h14.8l0,0c0.6,0,1.1,0.2,1.5,0.4c-0.5-0.9-1.5-1.4-2.5-1.4l0,0h-14.8c-2.5,0-4.8,1.1-6.4,2.8l-21.4,22.4
			c-0.2,0.3-0.4,0.6-0.4,0.9c-0.7,9.7-3.7,20-8.8,28C178.5,134.9,178.5,135.2,178.4,135.4z"/>
		<path class="st3" d="M186.3,62.4c0.3,0.4,0.6,0.8,1,1l0,0l-6.8-11.3h-0.4L186.3,62.4z"/>
		<path class="st3" d="M255.9,98.2l-14-24.2c-0.8-1.4-1.8-2.7-3-3.8c0.8,0.8,1.5,1.8,2,2.8l14,24.2c1.4,2.4,2.1,5.1,2.1,7.9v4.5
			l-11.3,6.8c-2,1.2-2,4.2,0,5.4c-0.9-1.4-0.6-3.4,1-4.4l11.3-6.8v-4.5C258,103.4,257.2,100.6,255.9,98.2z"/>
		<path class="st3" d="M257,133.1c0,2.8-0.7,5.5-2.1,7.9l-14,24.2c-1.4,2.4-3.4,4.4-5.8,5.8l-24.2,14c-2.4,1.4-5.1,2.1-7.9,2.1h-4.1
			l0.6,1h4.5c2.8,0,5.5-0.7,7.9-2.1l24.2-14c2.4-1.4,4.4-3.4,5.8-5.8l14-24.2c1.4-2.4,2.1-5.1,2.1-7.9v-4.5l-1-0.6V133.1z"/>
		<path class="st3" d="M186.3,175.8l-6.8,11.3H175c-2.8,0-5.5-0.7-7.9-2.1l-24.2-14c-1-0.6-1.9-1.3-2.8-2c1.1,1.2,2.4,2.2,3.8,3
			l24.2,14c2.4,1.4,5.1,2.1,7.9,2.1h4.5l6.8-11.3c1-1.6,3-1.9,4.4-1C190.5,173.7,187.5,173.7,186.3,175.8z"/>
		<path class="st3" d="M146,163.1c-0.3-0.5-0.4-1-0.4-1.5c0-18.4,14.8-17.9,14.8-53.6c0-12-2.6-19.5-5.9-22.2
			c2.8,3.4,4.9,10.5,4.9,21.2c0,35.7-14.8,35.2-14.8,53.6C144.5,161.7,145.1,162.6,146,163.1z"/>
		<path class="st3" d="M200.8,120.9l23.4,19.4c0.1,0.1,0.2,0.2,0.3,0.3c-0.4-0.4-0.8-0.9-1.3-1.3L200.8,120.9L200.8,120.9
			L200.8,120.9z"/>
	</g>
	<g id="logo-shadows" class="st2">
		<path class="st4" d="M148.5,77.1c-0.8,0-1.5,0.7-1.5,1.5v3c0,0.7,0.5,1.2,1.1,1.4c0-0.1-0.1-0.3-0.1-0.4v-3c0-0.8,0.7-1.5,1.5-1.5
			c0.1,0,0.3,0,0.4,0.1C149.7,77.6,149.2,77.1,148.5,77.1z"/>
		<path class="st4" d="M235.5,85.5c0-1.1-0.6-2-1.4-2.5c0.3,0.4,0.4,1,0.4,1.5c0,0.8-0.3,1.5-0.8,2.1l-32.8,34.3l0,0l1.1,0.9
			l32.7-34.2C235.2,87.1,235.5,86.3,235.5,85.5z"/>
		<path class="st4" d="M173.8,86.2c4.5,4.9,7.3,13.6,7.3,26.6c0,5.9-0.9,16.6-2.7,22.6c-0.2,0.7,0.7,1.1,1.1,0.5
			c0-0.1,0.1-0.2,0.1-0.2c1.6-6.1,2.5-16.2,2.5-21.9C182.1,99.9,178.9,90.8,173.8,86.2z"/>
		<path class="st4" d="M149.5,85.5h2.9c1,0,2,0.4,3,1.2c-1.2-1.5-2.6-2.2-4-2.2h-2.9c-0.6,0-1.1-0.2-1.5-0.4
			C147.5,84.9,148.4,85.5,149.5,85.5z"/>
		<path class="st4" d="M246.7,122.8c0.3,0.4,0.6,0.8,1,1L258,130v-0.4L246.7,122.8L246.7,122.8z"/>
		<path class="st4" d="M211.8,165.6h14.8c1.6,0,3-1.3,3-3v-12.2c0-3.4-1.5-6.6-4-8.9c1.9,2.2,3,4.9,3,7.9v12.2c0,1.6-1.3,3-3,3
			h-14.8c-0.6,0-1.1-0.2-1.5-0.4C209.7,165,210.7,165.6,211.8,165.6z"/>
		<path class="st4" d="M123,107.1c0-2.8,0.7-5.5,2.1-7.9l14-24.2c1.4-2.4,3.4-4.4,5.8-5.8l24.2-14c2.4-1.4,5.1-2.1,7.9-2.1h4.1
			l-0.6-1H176c-2.8,0-5.5,0.7-7.9,2.1l-24.2,14c-2.4,1.4-4.4,3.4-5.8,5.8l-14,24.2c-1.4,2.4-2.1,5.1-2.1,7.9v4.5l1,0.6
			C123,111.2,123,107.1,123,107.1z"/>
		<path class="st4" d="M139.1,167.2l-14-24.2c-1.4-2.4-2.1-5.1-2.1-7.9v-4.5l11.3-6.8c2-1.2,2-4.2,0-5.4c0.9,1.4,0.6,3.4-1,4.4
			l-11.3,6.8v4.5c0,2.8,0.7,5.5,2.1,7.9l14,24.2c0.8,1.4,1.8,2.7,3,3.8C140.4,169.1,139.7,168.2,139.1,167.2z"/>
		<path class="st4" d="M193.7,177.8c-0.3-0.4-0.6-0.8-1-1l0,0l6.8,11.3h0.4L193.7,177.8z"/>
		<path class="st4" d="M206.7,152l-19.9-16.5l0,0l-19.5,20.4c-5,5.3-11.3,8.7-18.8,8.7c-0.6,0-1.1-0.2-1.5-0.4
			c0.5,0.9,1.5,1.4,2.5,1.4c7.5,0,13.8-3.4,18.8-8.7l19.5-20.4l0,0l19.4,16.1C207.1,152.4,206.9,152.2,206.7,152z"/>
		<path class="st4" d="M151.7,77.5c0.8,0.9,1.5,1.9,2.4,2.7C153.3,79.3,152.5,78.2,151.7,77.5z"/>
		<path class="st4" d="M193.7,64.4l6.8-11.3h4.5c2.8,0,5.5,0.7,7.9,2.1l24.2,14c1,0.6,1.9,1.3,2.8,2c-1.1-1.2-2.4-2.2-3.8-3
			l-24.2-14c-2.4-1.4-5.1-2.1-7.9-2.1h-4.5l-6.8,11.3c-1,1.6-3,1.9-4.4,1C189.6,66.5,192.5,66.5,193.7,64.4z"/>
	</g>
</g>



</svg>
