<?xml version="1.0" encoding="utf-8"?>
<!-- Generator: Adobe Illustrator 28.3.0, SVG Export Plug-In . SVG Version: 6.00 Build 0)  -->
<svg version="1.1" id="Gold_Card" xmlns="http://www.w3.org/2000/svg" xmlns:xlink="http://www.w3.org/1999/xlink" x="0px" y="0px"
	 viewBox="0 0 380 240" style="enable-background:new 0 0 380 240;" xml:space="preserve">

<defs>
    <filter id="grainy" x="0%" y="0%" width="100%" height="100%" filterUnits="objectBoundingBox" primitiveUnits="userSpaceOnUse" color-interpolation-filters="linearRGB">
	    <feTurbulence type="turbulence" baseFrequency="0.102" numOctaves="4" seed="15" stitchTiles="stitch" x="0%" y="0%" width="100%" height="100%" result="turbulence"></feTurbulence>
	<feSpecularLighting surfaceScale="16" specularConstant="3" specularExponent="20" lighting-color="#ad883e" x="0%" y="0%" width="100%" height="100%" in="turbulence" result="specularLighting">
    		<feDistantLight azimuth="3" elevation="19"></feDistantLight>
  	    </feSpecularLighting>
  
    </filter>

     <clipPath id="clipShape">
            <path d="M365,0H15C6.7,0,0,6.7,0,15v210c0,8.3,6.7,15,15,15h350c8.3,0,15-6.7,15-15V15C380,6.7,373.3,0,365,0z
			 M269,134c0,4.7-1.2,9.3-3.6,13.4l-14,24.2c-2.4,4.1-5.7,7.5-9.8,9.8l-24.2,14c-4.1,2.4-8.7,3.6-13.4,3.6h-28
			c-4.7,0-9.3-1.2-13.4-3.6l-24.2-14c-4.1-2.4-7.5-5.7-9.8-9.8l-14-24.2c-2.4-4.1-3.6-8.7-3.6-13.4v-28c0-4.7,1.2-9.3,3.6-13.4
			l14-24.2c2.4-4.1,5.7-7.5,9.8-9.8l24.2-14c4.1-2.4,8.7-3.6,13.4-3.6h28c4.7,0,9.3,1.2,13.4,3.6l24.2,14c4.1,2.4,7.5,5.7,9.8,9.8
			l14,24.2c2.4,4.1,3.6,8.7,3.6,13.4V134z"/>
        </clipPath>

</defs>

<style type="text/css">
	.st0{fill:url(#logo-background_00000142859947033532728670000008521725826200026515_);}
	.st1{fill:url(#logo-inner_00000119813580495034316270000017920716060242854038_);}
	.st2{opacity:0.25;}
	.st3{fill:#FFFFFF;}
	.st4{fill:#60431D;}
	.st5{display:none;fill:#FF0049;}
	.st6{fill:url(#card_x5F_base_00000122694466056321695090000012474278915454873010_);}
	.st7{opacity:0.5;fill:#FFFFFF;enable-background:new    ;}
	.st8{opacity:0.5;fill:#231F20;enable-background:new    ;}
	.st9{fill:url(#frame-base_00000172442395661907982000000007347196366174403984_);}
	.st10{fill:#7F7F7F;opacity: .1;
          filter: brightness(1) contrast(1);
          transition: all .33s ease;
          mix-blend-mode: color-dodge;}
	.st11{opacity:0.25;fill:#FFFFFF;enable-background:new    ;}
	.st12{opacity:0.25;fill:#231F20;enable-background:new    ;}
	.st13{opacity:0.1;fill:#47310B;enable-background:new    ;}
	.st14{fill:url(#MC_icon_gold_00000011716005848833163260000015329021091945566375_);}
	.st15{fill:url(#gold_base_00000055701652857582066220000000918186761559568821_);}
	.st16{fill:#231F20;}
	.st17{fill:url(#chip_x5F_base_00000036214114913766346650000009710178402929822599_);}
	.st18{fill:url(#chip_x5F_top_00000076563328557786576400000004585113674268543892_);}
	.st19{fill:#E0AF58;}
	.st20{fill:#93682A;}
</style>

<g id="Karma_Letters">
	<g id="karma_x5F_logo">
		<path id="karma_x5F_logo_x5F_highlight" class="st11" d="M83.3,33.1h-4.8c-0.1-0.1-0.2-0.2-0.2-0.3c-0.8-2.1-1.7-4.3-2.5-6.4
			c-0.1-0.2-0.2-0.5-0.6-0.3c0,1.1,0,2.3,0,3.5s0,2.4,0,3.5c-0.4,0.1-3,0.1-3.5,0c-0.1-0.4-0.1-9.5,0-10c2,0,4,0,6.1,0
			c1,2.4,1.9,4.8,2.8,7.1c0.2,0.1,0.4,0.1,0.5,0c0.9-2.3,1.9-4.7,2.8-7.1H90c0.1,1.1,0,2.2,0,3.3s0,2.2,0,3.3v3.4
			c-1.2,0.1-2.3,0-3.5,0c0-0.7,0-1.2,0-1.8s0-1.2,0-1.7v-1.8c0-0.6,0-1.2,0-1.7c-0.1-0.2-0.3-0.1-0.4-0.1
			C85.2,28.4,84.3,30.8,83.3,33.1L83.3,33.1z M67.5,29.8c1.1,0.4,2,0.9,2.6,1.8c0.3,0.5,0.5,1,0.5,1.5c-0.4,0.1-3.2,0.1-3.7,0
			L66.8,33c-0.3-0.9-0.9-1.3-1.8-1.5c-0.9-0.3-1.8-0.4-2.8-0.4c-1.1,0-2.2,0-3.3,0c-0.1,0-0.3,0-0.4,0.1c-0.1,0.6,0,1.3-0.1,1.9
			c-0.4,0.1-2.9,0.1-3.4,0c-0.1-0.4-0.1-9.5,0-10c0.3,0,0.5-0.1,0.8-0.1c2.5-0.1,5-0.2,7.5-0.1c1.3,0.1,2.6,0.2,3.9,0.7
			c0.6,0.2,1.1,0.4,1.6,0.8c1.2,0.8,1.5,2.2,1.1,3.4c-0.3,0.8-0.9,1.2-1.6,1.6C68.1,29.5,67.8,29.6,67.5,29.8L67.5,29.8z M58.7,28.1
			c0.2,0,0.4,0,0.6,0c1.4,0,2.7,0.1,4.1-0.1c0.7-0.1,1.5-0.1,2.2-0.3c0.2-0.1,0.5-0.2,0.7-0.3s0.4-0.2,0.4-0.5s-0.2-0.5-0.4-0.6
			c-0.2-0.1-0.4-0.2-0.6-0.2c-0.8-0.2-1.7-0.2-2.6-0.3c-1,0-2,0-3,0c-0.4,0-0.9,0.1-1.3,0.1L58.7,28.1L58.7,28.1z M48.8,23.1
			c1.8,3.3,3.5,6.7,5.3,10c-0.4,0.1-2.8,0.2-3.8,0.1c-0.3-0.3-0.4-0.7-0.6-1h-7.8c-0.3,0.3-0.3,0.7-0.7,1.1c-1.2,0-2.5,0-3.8,0
			c1.8-3.4,3.6-6.7,5.4-10.1L48.8,23.1L48.8,23.1z M43.5,29.1h4.7c-0.6-1-1.1-2.1-1.7-3.1c-0.4,0-0.9,0-1.4,0
			C44.6,27,44,28,43.5,29.1z M107.7,33.1h-3.8c-0.2-0.3-0.4-0.7-0.6-1h-7.9c-0.3,0.3-0.3,0.7-0.6,1h-3.7c0.1-0.4,5-9.7,5.3-10.1h5.9
			C102.7,23.6,107.6,32.8,107.7,33.1L107.7,33.1z M98.7,26c-0.2,0.3-1.5,2.6-1.6,3.1c0.6,0.1,4.2,0.1,4.6,0c-0.6-1-1-2.1-1.7-3
			C99.6,26,99.2,26,98.7,26L98.7,26z M21.8,23.1h3.4c0.2,0.2,0.1,0.4,0.1,0.5c0,1.1,0,2.2,0,3.3c0,0.2,0,0.3,0.1,0.5
			c0.4,0,0.7,0,1.1-0.1c1.1-0.2,2.3-0.4,3.3-1c1.3-0.7,2.3-1.6,2.8-3.1c0-0.1,0-0.2,0.2-0.2h3.5c-0.6,2.6-2.2,4.4-4.4,5.7
			c1.7,1.5,3.3,2.9,4.9,4.3c-0.1,0.2-0.2,0.1-0.3,0.1c-1.3,0-2.6,0-4,0c-0.3,0-0.4-0.1-0.6-0.2c-1-0.9-2-1.8-3.1-2.7
			C28.6,30,28.4,30,28.2,30c-0.9,0.2-1.8,0.3-2.8,0.3c-0.1,0.5,0,0.9,0,1.3s0,0.9,0,1.3C25,33,22.6,33.1,21.9,33
			c-0.1-1.1,0-2.2,0-3.3s0-2.2,0-3.3L21.8,23.1L21.8,23.1z"/>
		<path id="karma_x5F_logo_x5F_shadow" class="st12" d="M84.3,33.9h-4.8c-0.1-0.1-0.2-0.2-0.2-0.3c-0.8-2.1-1.7-4.3-2.5-6.4
			c-0.1-0.2-0.2-0.5-0.6-0.3c0,1.1,0,2.3,0,3.5s0,2.4,0,3.5c-0.4,0.1-3,0.1-3.5,0c-0.1-0.4-0.1-9.5,0-10c2,0,4,0,6.1,0
			c1,2.4,1.9,4.8,2.8,7.1c0.2,0.1,0.4,0.1,0.5,0c0.9-2.3,1.9-4.7,2.8-7.1H91c0.1,1.1,0,2.2,0,3.3s0,2.2,0,3.3v3.4
			c-1.2,0.1-2.3,0-3.5,0c0-0.7,0-1.2,0-1.8s0-1.2,0-1.7v-1.8c0-0.6,0-1.2,0-1.7c-0.1-0.2-0.3-0.1-0.4-0.1
			C86.1,29.1,85.2,31.5,84.3,33.9L84.3,33.9z M68.4,30.5c1.1,0.4,2,0.9,2.6,1.8c0.3,0.5,0.5,1,0.5,1.5c-0.4,0.1-3.2,0.1-3.7,0
			l-0.1-0.1c-0.3-0.9-0.9-1.3-1.8-1.5c-0.9-0.3-1.8-0.4-2.8-0.4c-1.1,0-2.2,0-3.3,0c-0.1,0-0.3,0-0.4,0.1c-0.1,0.6,0,1.3-0.1,1.9
			c-0.4,0.1-2.9,0.1-3.4,0c-0.1-0.4-0.1-9.5,0-10c0.3,0,0.5-0.1,0.8-0.1c2.5-0.1,5-0.2,7.5-0.1c1.3,0.1,2.6,0.2,3.9,0.7
			c0.6,0.2,1.1,0.4,1.6,0.8c1.2,0.8,1.5,2.2,1.1,3.4c-0.3,0.8-0.9,1.2-1.6,1.6C69,30.2,68.7,30.3,68.4,30.5L68.4,30.5z M59.6,28.8
			c0.2,0,0.4,0,0.6,0c1.4,0,2.7,0.1,4.1-0.1c0.7-0.1,1.5-0.1,2.2-0.3c0.2-0.1,0.5-0.2,0.7-0.3s0.4-0.2,0.4-0.5s-0.2-0.5-0.4-0.6
			c-0.2-0.1-0.4-0.2-0.6-0.2c-0.8-0.2-1.7-0.2-2.6-0.3c-1,0-2,0-3,0c-0.4,0-0.9,0.1-1.3,0.1L59.6,28.8L59.6,28.8z M49.8,23.8
			c1.8,3.3,3.5,6.7,5.3,10c-0.4,0.1-2.8,0.2-3.8,0.1c-0.3-0.3-0.4-0.7-0.6-1h-7.8c-0.3,0.3-0.3,0.7-0.7,1.1c-1.2,0-2.5,0-3.8,0
			c1.8-3.4,3.6-6.7,5.4-10.1L49.8,23.8L49.8,23.8z M44.4,29.8h4.7c-0.6-1-1.1-2.1-1.7-3.1c-0.4,0-0.9,0-1.4,0
			C45.5,27.8,45,28.8,44.4,29.8z M108.6,33.9h-3.8c-0.2-0.3-0.4-0.7-0.6-1h-7.9c-0.3,0.3-0.3,0.7-0.6,1H92c0.1-0.4,5-9.7,5.3-10.1
			h5.9C103.6,24.3,108.5,33.5,108.6,33.9L108.6,33.9z M99.7,26.7c-0.2,0.3-1.5,2.6-1.6,3.1c0.6,0.1,4.2,0.1,4.6,0
			c-0.6-1-1-2.1-1.7-3C100.5,26.7,100.1,26.7,99.7,26.7L99.7,26.7z M22.7,23.8h3.4c0.2,0.2,0.1,0.4,0.1,0.5c0,1.1,0,2.2,0,3.3
			c0,0.2,0,0.3,0.1,0.5c0.4,0,0.7,0,1.1-0.1c1.1-0.2,2.3-0.4,3.3-1c1.3-0.7,2.3-1.6,2.8-3.1c0-0.1,0-0.2,0.2-0.2h3.5
			c-0.6,2.6-2.2,4.4-4.4,5.7c1.7,1.5,3.3,2.9,4.9,4.3c-0.1,0.2-0.2,0.1-0.3,0.1c-1.3,0-2.6,0-4,0c-0.3,0-0.4-0.1-0.6-0.2
			c-1-0.9-2-1.8-3.1-2.7c-0.2-0.2-0.4-0.2-0.6-0.2c-0.9,0.2-1.8,0.3-2.8,0.3c-0.1,0.5,0,0.9,0,1.3c0,0.4,0,0.9,0,1.3
			c-0.4,0.1-2.8,0.2-3.5,0.1c-0.1-1.1,0-2.2,0-3.3s0-2.2,0-3.3L22.7,23.8L22.7,23.8z"/>
		<path id="karma_x5F_logo_x5F_white" class="st3" d="M83.8,33.4H79c-0.1-0.1-0.2-0.2-0.2-0.3c-0.8-2.1-1.7-4.3-2.5-6.4
			c-0.1-0.2-0.2-0.5-0.6-0.3c0,1.1,0,2.3,0,3.5s0,2.4,0,3.5c-0.4,0.1-3,0.1-3.5,0c-0.1-0.4-0.1-9.5,0-10c2,0,4,0,6.1,0
			c1,2.4,1.9,4.8,2.8,7.1c0.2,0.1,0.4,0.1,0.5,0c0.9-2.3,1.9-4.7,2.8-7.1h6.1c0.1,1.1,0,2.2,0,3.3s0,2.2,0,3.3v3.4
			c-1.2,0.1-2.3,0-3.5,0c0-0.7,0-1.2,0-1.8s0-1.2,0-1.7v-1.8c0-0.6,0-1.2,0-1.7c-0.1-0.2-0.3-0.1-0.4-0.1
			C85.6,28.7,84.7,31,83.8,33.4L83.8,33.4z M67.9,30.1c1.1,0.4,2,0.9,2.6,1.8c0.3,0.5,0.5,1,0.5,1.5c-0.4,0.1-3.2,0.1-3.7,0
			l-0.1-0.1c-0.3-0.9-0.9-1.3-1.8-1.5c-0.9-0.3-1.8-0.4-2.8-0.4c-1.1,0-2.2,0-3.3,0c-0.1,0-0.3,0-0.4,0.1c-0.1,0.6,0,1.3-0.1,1.9
			c-0.4,0.1-2.9,0.1-3.4,0c-0.1-0.4-0.1-9.5,0-10c0.3,0,0.5-0.1,0.8-0.1c2.5-0.1,5-0.2,7.5-0.1c1.3,0.1,2.6,0.2,3.9,0.7
			c0.6,0.2,1.1,0.4,1.6,0.8c1.2,0.8,1.5,2.2,1.1,3.4c-0.3,0.8-0.9,1.2-1.6,1.6C68.5,29.8,68.2,29.9,67.9,30.1L67.9,30.1z M59.1,28.3
			c0.2,0,0.4,0,0.6,0c1.4,0,2.7,0.1,4.1-0.1c0.7-0.1,1.5-0.1,2.2-0.3c0.2-0.1,0.5-0.2,0.7-0.3s0.4-0.2,0.4-0.5s-0.2-0.5-0.4-0.6
			c-0.2-0.1-0.4-0.2-0.6-0.2c-0.8-0.2-1.7-0.2-2.6-0.3c-1,0-2,0-3,0c-0.4,0-0.9,0.1-1.3,0.1L59.1,28.3L59.1,28.3z M49.3,23.4
			c1.8,3.3,3.5,6.7,5.3,10c-0.4,0.1-2.8,0.2-3.8,0.1c-0.3-0.3-0.4-0.7-0.6-1h-7.8c-0.3,0.3-0.3,0.7-0.7,1.1c-1.2,0-2.5,0-3.8,0
			c1.8-3.4,3.6-6.7,5.4-10.1L49.3,23.4L49.3,23.4z M43.9,29.4h4.7c-0.6-1-1.1-2.1-1.7-3.1c-0.4,0-0.9,0-1.4,0
			C45,27.3,44.5,28.3,43.9,29.4z M108.1,33.4h-3.8c-0.2-0.3-0.4-0.7-0.6-1h-7.9c-0.3,0.3-0.3,0.7-0.6,1h-3.7c0.1-0.4,5-9.7,5.3-10.1
			h5.9C103.1,23.9,108,33,108.1,33.4L108.1,33.4z M99.2,26.3c-0.2,0.3-1.5,2.6-1.6,3.1c0.6,0.1,4.2,0.1,4.6,0c-0.6-1-1-2.1-1.7-3
			C100,26.3,99.6,26.2,99.2,26.3L99.2,26.3z M22.2,23.4h3.4c0.2,0.2,0.1,0.4,0.1,0.5c0,1.1,0,2.2,0,3.3c0,0.2,0,0.3,0.1,0.5
			c0.4,0,0.7,0,1.1-0.1c1.1-0.2,2.3-0.4,3.3-1c1.3-0.7,2.3-1.6,2.8-3.1c0-0.1,0-0.2,0.2-0.2h3.5c-0.6,2.6-2.2,4.4-4.4,5.7
			c1.7,1.5,3.3,2.9,4.9,4.3c-0.1,0.2-0.2,0.1-0.3,0.1c-1.3,0-2.6,0-4,0c-0.3,0-0.4-0.1-0.6-0.2c-1-0.9-2-1.8-3.1-2.7
			c-0.2-0.2-0.4-0.2-0.6-0.2c-0.9,0.2-1.8,0.3-2.8,0.3c-0.1,0.5,0,0.9,0,1.3c0,0.4,0,0.9,0,1.3c-0.4,0.1-2.8,0.2-3.5,0.1
			c-0.1-1.1,0-2.2,0-3.3s0-2.2,0-3.3L22.2,23.4L22.2,23.4z"/>
	</g>
</g>

<g id="MC_Icon">
	<path id="MC_icon_glass" class="st13" d="M342.4,220c-1.2,0-2.4-0.3-3.4-0.9l-2.4-1.4l-2.4,1.4c-1,0.6-2.2,0.9-3.4,0.9h-5.2
		c-1.2,0-2.4-0.3-3.4-0.9l-4.5-2.6c-1-0.6-1.9-1.5-2.5-2.5l-2.6-4.5c-0.6-1-0.9-2.2-0.9-3.4v-5.2c0-1.2,0.3-2.4,0.9-3.4l2.6-4.5
		c0.6-1,1.5-1.9,2.5-2.5l4.5-2.6c1-0.6,2.2-0.9,3.4-0.9h5.2c1.2,0,2.4,0.3,3.4,0.9l2.4,1.4l2.4-1.4c1-0.6,2.2-0.9,3.4-0.9h5.2
		c1.2,0,2.4,0.3,3.4,0.9l4.5,2.6c1,0.6,1.9,1.5,2.5,2.5l2.6,4.5c0.6,1,0.9,2.2,0.9,3.4v5.2c0,1.2-0.3,2.4-0.9,3.4L358,214
		c-0.6,1-1.5,1.9-2.5,2.5l-4.5,2.6c-1,0.6-2.2,0.9-3.4,0.9H342.4z"/>
	
		<linearGradient id="MC_icon_gold_00000063626082105684162350000002040319569383501967_" gradientUnits="userSpaceOnUse" x1="336.55" y1="51" x2="336.55" y2="22.3" gradientTransform="matrix(1 0 0 -1 0 240)">
		<stop  offset="0" style="stop-color:#FBEA95"/>
		<stop  offset="0.6227" style="stop-color:#F7DB63"/>
		<stop  offset="0.6408" style="stop-color:#F4D760"/>
		<stop  offset="0.6601" style="stop-color:#EBCA56"/>
		<stop  offset="0.6798" style="stop-color:#DCB546"/>
		<stop  offset="0.6994" style="stop-color:#C89831"/>
		<stop  offset="1" style="stop-color:#F7DB63"/>
	</linearGradient>
	<path id="MC_icon_gold" style="fill:url(#MC_icon_gold_00000063626082105684162350000002040319569383501967_);" d="M358.4,198.4
		L358.4,198.4l-2.5-4.4c-0.4-0.7-1-1.4-1.8-1.8l-4.4-2.5c-0.7-0.4-1.6-0.7-2.4-0.7h-5.1c-0.9,0-1.7,0.2-2.4,0.7l-1.8,1.1l-1.4,0.8
		l-1.4-0.8l-1.8-1.1c-0.7-0.4-1.6-0.7-2.4-0.7h-5.1c-0.9,0-1.7,0.2-2.4,0.7l-4.4,2.5c-0.7,0.4-1.4,1-1.8,1.8l-2.5,4.4
		c-0.4,0.7-0.7,1.6-0.7,2.4v5.1c0,0.9,0.2,1.7,0.7,2.4l2.5,4.4c0.4,0.7,1,1.4,1.8,1.8l4.4,2.5c0.7,0.4,1.6,0.7,2.4,0.7h5.1
		c0.9,0,1.7-0.2,2.4-0.7l1.8-1.1l1.4-0.8l1.2-0.7c0.3-0.1,0.5-0.3,0.7-0.5c0.4-0.3,0.7-0.7,0.9-1c0-0.1,0.1-0.1,0.1-0.2l2.5-4.4
		c0.4-0.7,0.7-1.6,0.7-2.4v-5.1c0-0.9-0.2-1.7-0.7-2.4l0,0l-2.5-4.4c0-0.1-0.1-0.1-0.1-0.2l-1.7,1c0.1,0.1,0.1,0.1,0.1,0.2l2.5,4.4
		c0.3,0.4,0.4,0.9,0.4,1.4v0.8l-2,1.2c-0.4,0.2-0.4,0.8,0,1l2,1.2v0.8c0,0.5-0.1,1-0.4,1.4l-2.5,4.4c0,0.1-0.1,0.1-0.1,0.2
		c-0.2,0.3-0.5,0.6-0.9,0.8l-0.2,0.1l-0.2-0.1c-0.4-0.2-0.7-0.5-0.9-0.8c-0.1-0.1-0.1-0.1-0.1-0.2l-2.5-4.4
		c-0.3-0.4-0.4-0.9-0.4-1.4v-0.7l2-1.2c0.4-0.2,0.4-0.8,0-1l-2-1.2v-0.8c0-0.5,0.1-1,0.4-1.4l2.5-4.4c0-0.1,0.1-0.1,0.1-0.2
		c0.2-0.3,0.5-0.6,0.9-0.8l0.2-0.1l1.9-1.1l1.2-0.7l1-0.6c0.4-0.3,0.9-0.4,1.4-0.4h0.8l1.2,2c0.2,0.4,0.8,0.4,1,0l1.2-2h0.8
		c0.5,0,1,0.1,1.4,0.4l4.4,2.5c0.4,0.3,0.8,0.6,1,1l2.5,4.4c0.3,0.4,0.4,0.9,0.4,1.4v0.8l-2,1.2c-0.4,0.2-0.4,0.8,0,1l2,1.2v0.8
		c0,0.5-0.1,1-0.4,1.4l-2.5,4.4c-0.3,0.4-0.6,0.8-1,1l-4.4,2.5c-0.4,0.3-0.9,0.4-1.4,0.4h-0.8l-1.2-2c-0.2-0.4-0.8-0.4-1,0l-1.2,2
		h-0.8c-0.5,0-1-0.1-1.4-0.4l-1-0.6c-0.4,0.4-0.8,0.7-1.3,1l-0.5,0.3l1.8,1.1c0.7,0.4,1.6,0.7,2.4,0.7h5.1c0.9,0,1.7-0.2,2.4-0.7
		l4.4-2.5c0.7-0.4,1.4-1,1.8-1.8l2.5-4.4c0.4-0.7,0.7-1.6,0.7-2.4v-5.1C359,200,358.8,199.2,358.4,198.4z M333.8,193.8
		c0,0.1-0.1,0.1-0.1,0.2l-2.5,4.4c-0.4,0.7-0.7,1.6-0.7,2.4v5.1c0,0.9,0.2,1.7,0.7,2.4l2.5,4.4c0,0.1,0.1,0.1,0.1,0.2
		c0.3,0.4,0.6,0.7,0.9,1l-1.2,0.7l-1,0.6c-0.4,0.3-0.9,0.4-1.4,0.4h-0.8l-1.2-2c-0.2-0.4-0.8-0.4-1,0l-1.2,2h-0.8
		c-0.5,0-1-0.1-1.4-0.4l-4.4-2.5c-0.4-0.3-0.8-0.6-1-1l-2.5-4.4c-0.3-0.4-0.4-0.9-0.4-1.4v-0.8l2-1.2c0.4-0.2,0.4-0.8,0-1l-2-1.2
		v-0.8c0-0.5,0.1-1,0.4-1.4l2.5-4.4c0.3-0.4,0.6-0.8,1-1l4.4-2.5c0.4-0.3,0.9-0.4,1.4-0.4h0.8l1.2,2c0.2,0.4,0.8,0.4,1,0l1.2-2h0.8
		c0.5,0,1,0.1,1.4,0.4l1,0.6l1.2,0.7C334.3,193.1,334,193.4,333.8,193.8z"/>
</g>

<g id="Gold">
	<g id="gold_text">
		
			<linearGradient id="gold_base_00000115488825645220537010000001566246244061980326_" gradientUnits="userSpaceOnUse" x1="54.65" y1="35.5563" x2="54.65" y2="20.4894" gradientTransform="matrix(1 0 0 -1 0 240)">
			<stop  offset="0" style="stop-color:#B88C39"/>
			<stop  offset="4.777926e-02" style="stop-color:#CBA446"/>
			<stop  offset="0.1104" style="stop-color:#DEBC53"/>
			<stop  offset="0.1766" style="stop-color:#ECCD5C"/>
			<stop  offset="0.248" style="stop-color:#F4D861"/>
			<stop  offset="0.3338" style="stop-color:#F7DB63"/>
			<stop  offset="0.365" style="stop-color:#F4D760"/>
			<stop  offset="0.3982" style="stop-color:#EBCA56"/>
			<stop  offset="0.4323" style="stop-color:#DCB546"/>
			<stop  offset="0.466" style="stop-color:#C89831"/>
			<stop  offset="1" style="stop-color:#F7DB63"/>
		</linearGradient>
		<path id="gold_base" style="fill:url(#gold_base_00000115488825645220537010000001566246244061980326_);" d="M30.2,217.6
			c-5,0-8.2-1.1-8.2-5.4c0-3.9,2.2-5.4,8.2-5.4c3.5,0,6.5,0.8,6.5,0.8v2.9c0,0-3.5-0.8-6.5-0.8c-2,0-4.7-0.2-4.7,2.5
			c0,2,1.4,2.5,4.7,2.5c1.6,0,2.9-0.1,4-0.3v-2.2h3.2v4.4C37.4,216.6,33.8,217.6,30.2,217.6z M39.3,212.2c0-3.8,2.5-5.5,8.4-5.5
			s8.4,1.7,8.4,5.5s-2.5,5.5-8.4,5.5S39.3,216,39.3,212.2z M47.7,214.7c3.5,0,4.8-0.7,4.8-2.6c0-1.8-1.4-2.6-4.8-2.6
			c-3.5,0-4.8,0.7-4.8,2.6C42.8,214,44.2,214.7,47.7,214.7z M57.7,207h3.5v7.3h9v2.9H57.7V207z M72.1,207c1.9-0.2,3.8-0.3,5.6-0.3
			c5.3,0,9.6,1.1,9.6,5.4s-4.3,5.4-9.6,5.4c-1.8,0-3.7-0.1-5.6-0.3V207z M75.6,214.5c4.5,0.1,8.2-0.2,8.2-2.4c0-2.3-3.7-2.6-8.2-2.4
			V214.5z"/>
		<g id="gold_shadow" class="st2">
			<path class="st16" d="M43.4,213.8c-0.4-0.4-0.6-0.9-0.6-1.6c0-1.8,1.4-2.6,4.8-2.6c1.9,0,3.2,0.2,3.9,0.7c-0.7-0.7-2-1-4.2-1
				c-3.5,0-4.8,0.7-4.8,2.6C42.5,212.8,42.8,213.4,43.4,213.8z"/>
			<rect x="60.9" y="207" class="st16" width="0.3" height="7.1"/>
			<path class="st16" d="M75.6,209.8c3.2-0.1,5.9,0,7.3,0.8c-1.2-1.1-4.2-1.2-7.6-1.1v4.8c0.1,0,0.2,0,0.3,0
				C75.6,214.3,75.6,209.8,75.6,209.8z"/>
			<path class="st16" d="M36.4,210.3c0,0-3.5-0.8-6.5-0.8c-2,0-4.7-0.2-4.7,2.5c0,0.9,0.3,1.5,0.9,1.9c-0.4-0.4-0.6-0.9-0.6-1.6
				c0-2.7,2.6-2.5,4.7-2.5c2.9,0,6.5,0.8,6.5,0.8v-2.9c0,0-0.1,0-0.3-0.1V210.3z"/>
			<path class="st16" d="M85.5,208.4c1,0.8,1.6,2,1.6,3.6c0,4.3-4.3,5.4-9.6,5.4c-1.7,0-3.5-0.1-5.3-0.3v0.2
				c1.9,0.2,3.8,0.3,5.6,0.3c5.3,0,9.6-1.1,9.6-5.4C87.4,210.4,86.7,209.2,85.5,208.4z"/>
			<polygon class="st16" points="69.9,217.1 57.7,217.1 57.7,217.3 70.2,217.3 70.2,214.4 69.9,214.4 			"/>
			<path class="st16" d="M54,208c1.2,0.9,1.7,2.2,1.7,4c0,3.8-2.5,5.5-8.4,5.5c-2.9,0-5-0.4-6.3-1.3c1.3,1,3.5,1.5,6.7,1.5
				c5.9,0,8.4-1.7,8.4-5.5C56,210.2,55.4,208.8,54,208z"/>
			<path class="st16" d="M37.1,216.3c0,0-3.6,1-7.2,1c-2.7,0-4.8-0.3-6.3-1.3c1.4,1.1,3.7,1.5,6.6,1.5c3.6,0,7.2-1,7.2-1v-4.4h-0.3
				V216.3z"/>
		</g>
		<g id="gold_highlight" class="st2">
			<rect x="61.5" y="214.4" class="st3" width="8.7" height="0.3"/>
			<path class="st3" d="M34.2,214.4c-1.1,0.2-2.4,0.3-4,0.3c-1.9,0-3.2-0.2-3.9-0.7c0.7,0.7,2,1,4.2,1c1.6,0,2.9-0.1,4-0.3v-2.2h2.9
				v-0.3h-3.2V214.4z"/>
			<path class="st3" d="M48,215c3.5,0,4.8-0.7,4.8-2.6c0-0.8-0.3-1.4-0.8-1.8c0.3,0.4,0.5,0.9,0.5,1.5c0,1.8-1.4,2.6-4.8,2.6
				c-2,0-3.3-0.2-4-0.8C44.3,214.7,45.7,215,48,215z"/>
			<path class="st3" d="M84.2,212.4c0-0.6-0.3-1.1-0.7-1.4c0.3,0.3,0.4,0.7,0.4,1.2c0,2.1-3.5,2.5-7.9,2.4v0.3
				C80.5,215,84.2,214.6,84.2,212.4z"/>
			<path class="st3" d="M72.4,207.3c1.9-0.2,3.8-0.3,5.6-0.3c3.3,0,6.2,0.4,7.9,1.8c-1.7-1.6-4.7-2.1-8.2-2.1
				c-1.8,0-3.7,0.1-5.6,0.3v10.3c0.1,0,0.2,0,0.3,0C72.4,217.3,72.4,207.3,72.4,207.3z"/>
			<polygon class="st3" points="58,207.3 61.2,207.3 61.2,207 57.7,207 57.7,217.3 58,217.3 			"/>
			<path class="st3" d="M22.3,212.4c0-3.9,2.2-5.4,8.2-5.4c2.9,0,5.3,0.5,6.2,0.7v-0.2c0,0-3-0.8-6.5-0.8c-6,0-8.2,1.5-8.2,5.4
				c0,1.8,0.6,3,1.5,3.9C22.8,215.2,22.3,214,22.3,212.4z"/>
			<path class="st3" d="M39.6,212.4c0-3.8,2.5-5.5,8.4-5.5c3.2,0,5.4,0.6,6.7,1.6c-1.3-1.3-3.6-1.8-7-1.8c-5.9,0-8.4,1.7-8.4,5.5
				c0,1.7,0.5,3,1.6,3.9C40,215.2,39.6,214,39.6,212.4z"/>
		</g>
	</g>
</g>

</svg>
