<?xml version="1.0" encoding="utf-8"?>
<!-- Generator: Adobe Illustrator 28.3.0, SVG Export Plug-In . SVG Version: 6.00 Build 0)  -->
<svg version="1.1" id="Gold_Card" xmlns="http://www.w3.org/2000/svg" xmlns:xlink="http://www.w3.org/1999/xlink" x="0px" y="0px"
	 viewBox="0 0 380 240" style="enable-background:new 0 0 380 240;" xml:space="preserve">

<defs>
    <filter id="grainy" x="0%" y="0%" width="100%" height="100%" filterUnits="objectBoundingBox" primitiveUnits="userSpaceOnUse" color-interpolation-filters="linearRGB">
	    <feTurbulence type="turbulence" baseFrequency="0.102" numOctaves="4" seed="15" stitchTiles="stitch" x="0%" y="0%" width="100%" height="100%" result="turbulence"></feTurbulence>
	<feSpecularLighting surfaceScale="16" specularConstant="3" specularExponent="20" lighting-color="#ad883e" x="0%" y="0%" width="100%" height="100%" in="turbulence" result="specularLighting">
    		<feDistantLight azimuth="3" elevation="19"></feDistantLight>
  	    </feSpecularLighting>
  
    </filter>

     <clipPath id="clipShape">
            <path d="M365,0H15C6.7,0,0,6.7,0,15v210c0,8.3,6.7,15,15,15h350c8.3,0,15-6.7,15-15V15C380,6.7,373.3,0,365,0z
			 M269,134c0,4.7-1.2,9.3-3.6,13.4l-14,24.2c-2.4,4.1-5.7,7.5-9.8,9.8l-24.2,14c-4.1,2.4-8.7,3.6-13.4,3.6h-28
			c-4.7,0-9.3-1.2-13.4-3.6l-24.2-14c-4.1-2.4-7.5-5.7-9.8-9.8l-14-24.2c-2.4-4.1-3.6-8.7-3.6-13.4v-28c0-4.7,1.2-9.3,3.6-13.4
			l14-24.2c2.4-4.1,5.7-7.5,9.8-9.8l24.2-14c4.1-2.4,8.7-3.6,13.4-3.6h28c4.7,0,9.3,1.2,13.4,3.6l24.2,14c4.1,2.4,7.5,5.7,9.8,9.8
			l14,24.2c2.4,4.1,3.6,8.7,3.6,13.4V134z"/>
        </clipPath>

</defs>

<style type="text/css">
	.st0{fill:url(#logo-background_00000142859947033532728670000008521725826200026515_);}
	.st1{fill:url(#logo-inner_00000119813580495034316270000017920716060242854038_);}
	.st2{opacity:0.25;}
	.st3{fill:#FFFFFF;}
	.st4{fill:#60431D;}
	.st5{display:none;fill:#FF0049;}
	.st6{fill:url(#card_x5F_base_00000122694466056321695090000012474278915454873010_);}
	.st7{opacity:0.5;fill:#FFFFFF;enable-background:new    ;}
	.st8{opacity:0.5;fill:#231F20;enable-background:new    ;}
	.st9{fill:url(#frame-base_00000172442395661907982000000007347196366174403984_);}
	.st10{fill:#7F7F7F;opacity: .1;
          filter: brightness(1) contrast(1);
          transition: all .33s ease;
          mix-blend-mode: color-dodge;}
	.st11{opacity:0.25;fill:#FFFFFF;enable-background:new    ;}
	.st12{opacity:0.25;fill:#231F20;enable-background:new    ;}
	.st13{opacity:0.1;fill:#47310B;enable-background:new    ;}
	.st14{fill:url(#MC_icon_gold_00000011716005848833163260000015329021091945566375_);}
	.st15{fill:url(#gold_base_00000055701652857582066220000000918186761559568821_);}
	.st16{fill:#231F20;}
	.st17{fill:url(#chip_x5F_base_00000036214114913766346650000009710178402929822599_);}
	.st18{fill:url(#chip_x5F_top_00000076563328557786576400000004585113674268543892_);}
	.st19{fill:#E0AF58;}
	.st20{fill:#93682A;}
</style>

<g id="Card">
	
		<linearGradient id="card_x5F_base_00000060028193882439236990000014139133658347055780_" gradientUnits="userSpaceOnUse" x1="96.8613" y1="281.221" x2="293.4602" y2="-59.2983" gradientTransform="matrix(1 0 0 -1 0 240)">
		<stop  offset="0" style="stop-color:#B88C39"/>
		<stop  offset="1.154427e-02" style="stop-color:#C29B43"/>
		<stop  offset="3.494656e-02" style="stop-color:#D3B354"/>
		<stop  offset="5.965155e-02" style="stop-color:#DFC460"/>
		<stop  offset="8.629417e-02" style="stop-color:#E6CF67"/>
		<stop  offset="0.1183" style="stop-color:#E8D269"/>
		<stop  offset="0.2213" style="stop-color:#CDAB4E"/>
		<stop  offset="0.3242" style="stop-color:#B78B38"/>
		<stop  offset="0.4106" style="stop-color:#AA782B"/>
		<stop  offset="0.47" style="stop-color:#A57126"/>
		<stop  offset="0.5479" style="stop-color:#B28230"/>
		<stop  offset="0.7017" style="stop-color:#D5AF4A"/>
		<stop  offset="0.8367" style="stop-color:#F7DB63"/>
		<stop  offset="0.8697" style="stop-color:#F4D761"/>
		<stop  offset="0.9048" style="stop-color:#E9CA59"/>
		<stop  offset="0.941" style="stop-color:#D9B54E"/>
		<stop  offset="0.9776" style="stop-color:#C1973D"/>
		<stop  offset="1" style="stop-color:#B08131"/>
	</linearGradient>
	<path id="card_x5F_base" style="fill:url(#card_x5F_base_00000060028193882439236990000014139133658347055780_);" d="M15,0.1h350
		c8.3,0,15,6.7,15,15v210c0,8.3-6.7,15-15,15H15c-8.3,0-15-6.7-15-15v-210C0,6.8,6.7,0.1,15,0.1z M269,106.1c0-4.7-1.2-9.3-3.6-13.4
		l-14-24.2c-2.3-4.1-5.7-7.4-9.8-9.8l-24.2-14c-4.1-2.4-8.7-3.6-13.4-3.6h-28c-4.7,0-9.3,1.2-13.4,3.6l-24.2,14
		c-4.1,2.3-7.4,5.7-9.8,9.8l-14,24.2c-2.4,4.1-3.6,8.7-3.6,13.4v28c0,4.7,1.2,9.3,3.6,13.4l14,24.2c2.3,4.1,5.7,7.4,9.8,9.8l24.2,14
		c4.1,2.4,8.7,3.6,13.4,3.6h28c4.7,0,9.3-1.2,13.4-3.6l24.2-14c4.1-2.3,7.4-5.7,9.8-9.8l14-24.2c2.4-4.1,3.6-8.7,3.6-13.4V106.1z"/>
	<path id="card_x5F_higlight" class="st7" d="M1,226.1v-211c0-7.7,6.3-14,14-14h351c3.9,0,7.4,1.5,10.1,3.9c-2.7-3-6.7-4.9-11.1-4.9
		H15c-8.3,0-15,6.7-15,15v210c0,4.4,1.9,8.3,4.9,11.1C2.5,233.5,1,230,1,226.1z"/>
	<path id="card_x5F_shadow" class="st8" d="M377.5,6.8c1,1.9,1.5,4,1.5,6.3v212c0,7.7-6.3,14-14,14H13c-2.3,0-4.4-0.6-6.3-1.5
		c2.4,1.6,5.2,2.5,8.3,2.5h350c8.3,0,15-6.7,15-15v-210C380,12,379.1,9.2,377.5,6.8z"/>
	<g id="Inner_frame_group">
		<g id="Inner_x5F_frame">
			
				<linearGradient id="frame-base_00000154390275408358068990000001954767171532151732_" gradientUnits="userSpaceOnUse" x1="146.6723" y1="194.9457" x2="236.0536" y2="40.1329" gradientTransform="matrix(1 0 0 -1 0 240)">
				<stop  offset="0" style="stop-color:#E8D269"/>
				<stop  offset="0.1111" style="stop-color:#CDAB4E"/>
				<stop  offset="0.2221" style="stop-color:#B78B38"/>
				<stop  offset="0.3154" style="stop-color:#AA782B"/>
				<stop  offset="0.3796" style="stop-color:#A57126"/>
				<stop  offset="0.4239" style="stop-color:#B28230"/>
				<stop  offset="0.5115" style="stop-color:#D5AF4A"/>
				<stop  offset="0.5884" style="stop-color:#F7DB63"/>
				<stop  offset="0.6715" style="stop-color:#F4D761"/>
				<stop  offset="0.7601" style="stop-color:#E9CA59"/>
				<stop  offset="0.8512" style="stop-color:#D9B54E"/>
				<stop  offset="0.9435" style="stop-color:#C1973D"/>
				<stop  offset="1" style="stop-color:#B08131"/>
			</linearGradient>
			<path id="frame-base" style="fill:url(#frame-base_00000154390275408358068990000001954767171532151732_);" d="M275.9,88.9
				L260,61.3c-2.7-4.7-6.5-8.5-11.2-11.2l-27.6-15.9c-4.7-2.7-9.9-4.1-15.3-4.1h-31.8c-5.4,0-10.6,1.4-15.3,4.1l-27.6,15.9
				c-4.7,2.7-8.5,6.5-11.2,11.2l-15.9,27.6c-2.7,4.7-4.1,9.9-4.1,15.3V136c0,5.4,1.4,10.6,4.1,15.3l15.9,27.6
				c2.7,4.7,6.5,8.5,11.2,11.2l27.6,15.9c4.7,2.7,9.9,4.1,15.3,4.1h31.8c5.4,0,10.6-1.4,15.3-4.1l27.6-15.9
				c4.7-2.7,8.5-6.5,11.2-11.2l15.9-27.6c2.7-4.7,4.1-9.9,4.1-15.3v-31.8C280,98.8,278.6,93.6,275.9,88.9z M269,134.1
				c0,4.7-1.2,9.3-3.6,13.4l-14,24.2c-2.4,4.1-5.7,7.5-9.8,9.8l-24.2,14c-4.1,2.4-8.7,3.6-13.4,3.6h-28c-4.7,0-9.3-1.2-13.4-3.6
				l-24.2-14c-4.1-2.4-7.5-5.7-9.8-9.8l-14-24.2c-2.4-4.1-3.6-8.7-3.6-13.4v-28c0-4.7,1.2-9.3,3.6-13.4l14-24.2
				c2.4-4.1,5.7-7.5,9.8-9.8l24.2-14c4.1-2.4,8.7-3.6,13.4-3.6h28c4.7,0,9.3,1.2,13.4,3.6l24.2,14c4.1,2.4,7.5,5.7,9.8,9.8l14,24.2
				c2.4,4.1,3.6,8.7,3.6,13.4V134.1z"/>
			<g id="frame-shadow" class="st2">
				<path d="M132.4,176.7c-1.4-1.5-2.7-3.2-3.8-5l-14-24.2c-2.4-4.1-3.6-8.7-3.6-13.4v-28c0-4.7,1.2-9.3,3.6-13.4l14-24.2
					c2.4-4.1,5.7-7.5,9.8-9.8l24.2-14c4.1-2.4,8.7-3.6,13.4-3.6h28c4.7,0,9.3,1.2,13.4,3.6l24.2,14c1.8,1.1,3.5,2.3,5,3.8
					c-1.8-1.9-3.8-3.5-6-4.8l-24.2-14c-4.1-2.4-8.7-3.6-13.4-3.6h-28c-4.7,0-9.3,1.2-13.4,3.6l-24.2,14c-4.1,2.4-7.5,5.7-9.8,9.8
					l-14,24.2c-2.4,4.1-3.6,8.7-3.6,13.4v28c0,4.7,1.2,9.3,3.6,13.4l14,24.2C128.9,172.9,130.5,175,132.4,176.7z"/>
				<path d="M275.9,88.9L260,61.3c-1.5-2.5-3.3-4.8-5.4-6.8c1.7,1.8,3.2,3.7,4.4,5.8l15.9,27.6c2.7,4.7,4.1,9.9,4.1,15.3V135
					c0,5.4-1.4,10.6-4.1,15.3L259,177.9c-2.7,4.7-6.5,8.5-11.2,11.2L220.2,205c-4.7,2.7-9.9,4.1-15.3,4.1h-31.8
					c-5.4,0-10.6-1.4-15.3-4.1l-27.6-15.9c-2.1-1.2-4.1-2.7-5.8-4.4c2,2.1,4.3,3.9,6.8,5.4l27.6,15.9c4.7,2.7,9.9,4.1,15.3,4.1h31.8
					c5.4,0,10.6-1.4,15.3-4.1l27.6-15.9c4.7-2.7,8.5-6.5,11.2-11.2l15.9-27.6c2.7-4.7,4.1-9.9,4.1-15.3v-31.8
					C280,98.8,278.6,93.5,275.9,88.9z"/>
			</g>
			<g id="frame-highlight" class="st2">
				<path class="st3" d="M121,179.9l-15.9-27.6c-2.7-4.7-4.1-9.9-4.1-15.3v-31.8c0-5.4,1.4-10.6,4.1-15.3L121,62.3
					c2.7-4.7,6.5-8.5,11.2-11.2l27.6-15.9c4.7-2.7,9.9-4.1,15.3-4.1h31.8c5.4,0,10.6,1.4,15.3,4.1l27.6,15.9
					c2.1,1.2,4.1,2.7,5.8,4.4c-2-2.1-4.3-3.9-6.8-5.4l-27.6-15.9c-4.7-2.7-9.9-4.1-15.3-4.1h-31.8c-5.4,0-10.6,1.4-15.3,4.1
					l-27.6,15.9c-4.7,2.7-8.5,6.5-11.2,11.2l-15.9,27.6c-2.7,4.7-4.1,9.9-4.1,15.3V136c0,5.4,1.4,10.6,4.1,15.3l15.9,27.6
					c1.5,2.5,3.3,4.8,5.4,6.8C123.7,184,122.2,182,121,179.9z"/>
				<path class="st3" d="M247.7,63.5c1.4,1.5,2.7,3.2,3.8,5l14,24.2l0,0c2.4,4.1,3.6,8.7,3.6,13.4v28c0,4.7-1.2,9.3-3.6,13.4
					l-14,24.2c-2.4,4.1-5.7,7.5-9.8,9.8l-24.2,14c-4.1,2.4-8.7,3.6-13.4,3.6H176c-4.7,0-9.3-1.2-13.4-3.6l-24.2-14
					c-1.8-1.1-3.5-2.3-5-3.8c1.8,1.9,3.8,3.5,6,4.8l24.2,14c4.1,2.4,8.7,3.6,13.4,3.6h28c4.7,0,9.3-1.2,13.4-3.6l24.2-14
					c4.1-2.4,7.5-5.7,9.8-9.8l14-24.2c2.4-4.1,3.6-8.7,3.6-13.4v-28c0-4.7-1.2-9.3-3.6-13.4l0,0l-14-24.2
					C251.1,67.3,249.5,65.2,247.7,63.5z"/>
			</g>
		</g>
	</g>
</g>

<rect width="100%" height="100%" filter="url(#grainy)" clip-path="url(#clipShape)" />

<g id="Chip">
	
		<linearGradient id="chip_x5F_base_00000014610670728403062500000004695738675887147187_" gradientUnits="userSpaceOnUse" x1="32.1411" y1="147.3684" x2="63.8589" y2="92.4316" gradientTransform="matrix(1 0 0 -1 0 240)">
		<stop  offset="0" style="stop-color:#B28E48"/>
		<stop  offset="0.4848" style="stop-color:#66400F"/>
		<stop  offset="1" style="stop-color:#895E15"/>
	</linearGradient>
	<path id="chip_x5F_base" style="fill:url(#chip_x5F_base_00000014610670728403062500000004695738675887147187_);" d="M70,143.1H26
		c-3.3,0-6-2.7-6-6v-34c0-3.3,2.7-6,6-6h44c3.3,0,6,2.7,6,6v34C76,140.4,73.3,143.1,70,143.1z"/>
	
		<linearGradient id="chip_x5F_top_00000111150463379120408750000008730067034973095061_" gradientUnits="userSpaceOnUse" x1="33.1403" y1="145.6377" x2="62.8234" y2="94.225" gradientTransform="matrix(1 0 0 -1 0 240)">
		<stop  offset="0" style="stop-color:#BF9746"/>
		<stop  offset="0.2758" style="stop-color:#8D5818"/>
		<stop  offset="0.3711" style="stop-color:#9B6925"/>
		<stop  offset="0.5597" style="stop-color:#BE9645"/>
		<stop  offset="0.5641" style="stop-color:#BF9746"/>
		<stop  offset="1" style="stop-color:#8D5818"/>
	</linearGradient>
	<path id="chip_x5F_top" style="fill:url(#chip_x5F_top_00000111150463379120408750000008730067034973095061_);" d="M67.3,106.1
		c0.4-2.1,0.7-4.4,0.7-7h2c2.2,0,4,1.8,4,4v3H67.3z M65.3,106.1c0.5-2.1,0.7-4.4,0.7-7h-6c0,2.6-0.3,4.9-0.9,7H65.3z M74,132.1v-24
		h-7.2c-1.8,6.4-5.5,10.6-9.1,13.3l12.2,10.7H74z M66.9,132.1c-1-0.9-11.9-10.4-12.5-10.9c4.5-2.8,8.1-6.3,10.3-13.1h-6.4
		c-4.5,11.7-20.4,11-20.4,11v-11h-7v24h7v-7c0,0,6,0.1,10.2-1.3c1.1,1,8.2,7.1,9.4,8.2h9.4V132.1z M72.2,134.1l1.8,1.5v-1.5H72.2z
		 M56.9,106.1c0.7-2,1.1-4.3,1.1-7H40v7H56.9z M56.1,108.1H40v9C44,116.9,52.4,115.6,56.1,108.1z M40,127.1v5h14.6l-6.9-6
		C44.7,126.8,42,127,40,127.1z M38,106.1v-7h-7v7H38z M69.2,134.1h-9.3l8,7h2c1.8,0,3.4-1.3,3.8-3L69.2,134.1z M31,134.1v7h7v-7H31z
		 M56.9,134.1H40v7h24.9L56.9,134.1z M29,99.1h-3c-2.2,0-4,1.8-4,4v3h7V99.1z M22,134.1v3c0,2.2,1.8,4,4,4h3v-7H22z M29,108.1h-7v24
		h7V108.1z"/>
	<g id="chip_x5F_highlight">
		<path class="st19" d="M59.1,106.1c0.6-2.1,0.9-4.4,0.9-7h6l-0.3,0.5h-5.2c0,2.3-0.3,4.3-0.7,6.2L59.1,106.1z"/>
		<path class="st19" d="M48.2,126.5c-3,0.8-5.7,1-7.7,1.1v4.5H40v-5c2-0.1,4.7-0.3,7.7-1.1L48.2,126.5z"/>
		<path class="st19" d="M58.9,108.6h5.3l0.5-0.5h-6.4c-4,10.5-17.2,11-19.9,11h-0.5l-0.2,0.5h0.8C40,119.7,54.6,119.8,58.9,108.6z"
			/>
		<polygon class="st19" points="69.7,134.6 60.5,134.6 59.9,134.1 69.2,134.1 		"/>
		<path class="st19" d="M67.3,106.1c0.4-2.1,0.7-4.4,0.7-7h2c0.9,0,1.7,0.3,2.3,0.8c-0.4-0.2-0.9-0.3-1.3-0.3h-2.5
			c0,2.3-0.2,4.3-0.5,6.2L67.3,106.1z"/>
		<path class="st19" d="M66.8,108.1c-1.8,6.4-5.5,10.6-9.1,13.3l0.5,0.5c3.6-2.7,7.3-6.9,9.1-13.3h6.4l0.2-0.5H66.8z"/>
		<polygon class="st19" points="72.8,134.6 73.8,134.6 74,134.1 72.2,134.1 		"/>
		<polygon class="st19" points="31.5,99.6 37.7,99.6 38,99.1 31,99.1 31,106.1 31.5,105.9 		"/>
		<path class="st19" d="M22,137.1c0,0.9,0.3,1.7,0.8,2.3c-0.2-0.4-0.3-0.9-0.3-1.3v-3.5h6.3l0.2-0.5h-7V137.1z"/>
		<polygon class="st19" points="40.5,99.6 57.7,99.6 58,99.1 40,99.1 40,106.1 40.5,105.9 		"/>
		<polygon class="st19" points="57.5,134.6 40.5,134.6 40.5,140.9 40,141.1 40,134.1 56.9,134.1 		"/>
		<polygon class="st19" points="22,132.1 22.5,131.8 22.5,108.6 28.8,108.6 29,108.1 22,108.1 		"/>
		<polygon class="st19" points="31,141.1 31.5,140.9 31.5,134.6 37.8,134.6 38,134.1 31,134.1 		"/>
		<polygon class="st19" points="40,117.1 40,108.1 56.1,108.1 55.4,108.6 40.5,108.6 40.5,116.8 		"/>
		<polygon class="st19" points="31.5,108.6 37.8,108.6 38,108.1 31,108.1 31,132.1 31.5,131.8 		"/>
		<path class="st19" d="M22,103.1v3l0.5-0.2v-2.8c0-1.9,1.6-3.5,3.5-3.5h2.7l0.3-0.5h-3C23.8,99.1,22,100.9,22,103.1z"/>
	</g>
	<g id="chip_x5F_shadow">
		<path class="st20" d="M28.8,140.9h-3c-1,0-2-0.4-2.7-1.1c0.7,0.8,1.8,1.3,2.9,1.3h3v-7h-0.2C28.8,134.1,28.8,140.9,28.8,140.9z"/>
		<polygon class="st20" points="37.8,105.9 31,105.9 31,106.1 38,106.1 38,99.1 37.8,99.1 		"/>
		<polygon class="st20" points="28.8,131.8 22,131.8 22,132.1 29,132.1 29,108.1 28.8,108.1 		"/>
		<path class="st20" d="M56.1,108.1h-0.4c-3.7,7.2-11.7,8.5-15.7,8.7v0.3C44,116.9,52.4,115.6,56.1,108.1z"/>
		<path class="st20" d="M64.7,108.1h-0.3c-2.2,6.6-5.7,10.1-10.2,12.8c0,0,0.1,0.1,0.3,0.2C59,118.4,62.5,114.9,64.7,108.1z"/>
		<polygon class="st20" points="38,108.1 37.8,108.1 37.8,119.6 38,119.1 		"/>
		<path class="st20" d="M65,105.9h-5.9c0,0.1,0,0.2-0.1,0.2h6.2c0.5-2.1,0.7-4.4,0.7-7h-0.3C65.7,101.6,65.5,103.8,65,105.9z"/>
		<polygon class="st20" points="28.8,105.9 22,105.9 22,106.1 29,106.1 29,99.1 28.8,99.1 		"/>
		<path class="st20" d="M56.7,105.9H40v0.2h16.9c0.7-2,1.1-4.3,1.1-7h-0.3C57.7,101.7,57.3,103.9,56.7,105.9z"/>
		<polygon class="st20" points="74,135.6 74,134.1 73.8,134.1 73.8,135.4 		"/>
		<polygon class="st20" points="37.8,140.9 31,140.9 31,141.1 38,141.1 38,134.1 37.8,134.1 		"/>
		<path class="st20" d="M72.7,100.2c0.7,0.7,1.1,1.7,1.1,2.7v3h-6.4c0,0.1,0,0.2,0,0.2h6.7v-3C74,101.9,73.5,100.9,72.7,100.2z"/>
		<path class="st20" d="M68,141.1h2c1.8,0,3.4-1.3,3.8-3l-0.3-0.2c-0.5,1.7-2,2.9-3.8,2.9h-2L68,141.1z"/>
		<polygon class="st20" points="69.9,132.1 74,132.1 74,108.1 73.8,108.1 73.8,131.8 69.7,131.8 		"/>
		<path class="st20" d="M48.2,123.8c-4.2,1.4-10.2,1.3-10.2,1.3v7h-7v-0.2h6.8v-7c0,0,6,0.1,10.2-1.3L48.2,123.8z"/>
		<path class="st20" d="M57.6,132.1h9.3c-0.1-0.1-0.2-0.1-0.3-0.2h-9.3L57.6,132.1z"/>
		<polygon class="st20" points="54.3,131.8 40,131.8 40,132.1 54.6,132.1 		"/>
		<polygon class="st20" points="40,140.9 40,141.1 64.9,141.1 64.6,140.9 		"/>
	</g>
</g>


</svg>
